<?xml version="1.0" encoding="UTF-8"?>
<svg enable-background="new 0 0 3000 2220.87" version="1.1" viewBox="0 0 3e3 2220.9" xmlns="http://www.w3.org/2000/svg" xmlns:xlink="http://www.w3.org/1999/xlink">
 <style type="text/css">.st0{clip-path:url(#c);fill:#FFECD6;} .st1{clip-path:url(#c);fill:#FFFFFF;} .st2{clip-path:url(#c);} .st3{fill:none;} .st4{fill:#00776A;} .st5{fill:#008F80;} .st6{fill:#00A396;} .st7{fill:#C78DA3;} .st8{fill:#E5CAD4;} .st9{fill:#808184;} .st10{fill:#B2B4B7;} .st11{fill:#FFFFFF;} .st12{fill:#EBEBEB;} .st13{fill:#E3E3E3;} .st14{fill:#F37820;} .st15{fill:#F6901E;} .st16{fill:#F05B22;} .st17{fill:#231F20;} .st18{fill:#D8D3D1;} .st19{fill:#907777;} .st20{fill:#C08277;} .st21{fill:#006277;} .st22{fill:#E7E6D9;} .st23{clip-path:url(#a);} .st24{fill:#045519;}</style>
 <defs>
  <rect id="d" width="3e3" height="2220.9"/>
 </defs>
 <clipPath id="c">
  <use xlink:href="#d"/>
 </clipPath>
 <rect class="st0" width="3e3" height="2220.9"/>
 <ellipse class="st1" cx="1569.4" cy="1946.8" rx="1019.1" ry="87.09"/>
 <g class="st2">
  <path class="st3" d="m810.1 1434.5c0.78-67.38 1.17-136-5.02-203.46-21.23 29.31-48.08 54.67-76.13 75.77 13.08 27.39 24.11 56.14 33.14 85.77 18.36 60.24 27.29 122.2 27.11 185.77-0.16 57.7-5.62 115.13-9.36 172.64h25.13c2.19-35.62 2.99-71.38 3.43-106.9 0.85-69.85 0.89-139.73 1.7-209.59z"/>
  <path class="st4" d="m841.72 1434.6c0.12-0.1 0.25-0.19 0.37-0.29 0.12-2.99 0.25-5.98 0.39-8.97 2.44-52.05 8.72-104.05 23.91-153.58 14-45.68 36.84-86.78 65.95-122.3-1.54-0.22-2.92-1.49-3.46-3.08l-9.1 5.67c-23.65 30.66-42.61 65.02-56.22 102.88-17.16 47.76-24.3 99.18-27.85 150.13-0.93 13.4-1.63 26.81-2.17 40.23 0.78-1.54 1.62-3.01 2.53-4.37 1.66-2.44 3.53-4.56 5.65-6.32z"/>
  <path class="st4" d="m789.19 1578.4c0.18-63.57-8.75-125.53-27.11-185.77-9.03-29.64-20.06-58.38-33.14-85.77-2.25 1.69-4.51 3.36-6.78 5 13.86 29.22 25.41 59.98 34.86 91.68 17.44 58.44 24.4 118.72 24.22 180.09-0.16 55.93-5.65 111.66-9.34 167.41h7.92c3.76-57.51 9.21-114.94 9.37-172.64z"/>
  <path class="st4" d="m635.55 1173c-1.39 2.46-2.88 4.88-4.44 7.25 12.02 11.93 23.25 24.62 33.74 37.96-0.2-4.66-0.34-9.22-0.43-13.61-9.11-11.02-18.72-21.57-28.87-31.6z"/>
  <path class="st4" d="m810.1 1434.5c-0.81 69.86-0.84 139.73-1.71 209.59-0.44 35.52-1.24 71.28-3.43 106.9h7.94c1.35-23.83 2.1-47.68 2.73-71.32 1.73-64.92 0.73-129.9 1.68-194.84 1.29-87.93 1.73-175.5-5.76-263.13-2.09 3.16-4.25 6.27-6.48 9.34 6.2 67.46 5.81 136.08 5.03 203.46z"/>
  <path class="st4" d="m764.19 1616.8c-3.75-39.21-4.8-79.25-13.91-117.57-5.33-22.4-14.89-43.34-33.11-52.61 0.01 0.02 0.36 3.46 0.06 0.72 0.35 3.33 0.54 6.66 0.58 9.98 17.21 12.15 24.05 37.6 28.45 61.57 6.88 37.46 8.24 76.71 11.52 114.73 3.37 39.02 4.68 78.22 4.99 117.41h7.92c-0.39-44.84-2.23-89.61-6.5-134.23z"/>
  <path class="st4" d="m717.17 1446.6c-0.01 0-0.02-0.01-0.03-0.01 0.03 0.25 0.07 0.49 0.09 0.74-0.04-0.51-0.06-0.71-0.06-0.73z"/>
  <path class="st5" d="m427.6 1258.8c-7.63-0.01-14.94-0.26-21.95-0.77-13.58-0.88-26.09-3.46-37.17-8.05-8.92-3.7-17.06-8.78-24.37-15.34-2.79 0.8-4.47 1.28-4.47 1.28 2.4 3.01 4.82 5.94 7.26 8.8 2.42 2.86 4.9 5.64 7.46 8.3 2.5 2.7 5.06 5.32 7.72 7.88 2.66 2.54 5.47 5 8.38 7.41 2.92 2.41 5.92 4.85 9.03 7.25 3.12 2.42 6.36 4.8 9.71 7.14 3.35 2.33 6.8 4.61 10.34 6.81 3.53 2.21 7.13 4.32 10.7 6.38 3.68 2.01 7.29 3.96 10.86 5.83 3.53 1.85 6.99 3.58 10.44 5.11 3.44 1.53 6.91 2.83 10.35 3.91 3.43 1.07 6.82 1.95 10.19 2.68 4.14 0.88 7.69 1.4 10.65 1.58s5.35 0 7.21-0.55c3.69-1.09 5.29-3.68 5.11-7.57-0.18-3.91-1.77-8.86-3.99-14.65-1.11-2.9-2.15-5.96-3.19-9.26-0.85-3.23-1.68-6.69-2.45-10.39 0 0-0.78-6.56-1-13.37 0.02-0.6 0.04-1.21 0.07-1.81-4.42 0.34-8.81 0.61-13.15 0.82-8.17 0.36-16.11 0.59-23.74 0.58z"/>
  <path class="st6" d="m641.75 1160.5-6.02-5.74c-10.54-8.38-22.63-15.82-35.6-23.24-12.98-7.43-26.81-14.43-40.78-20.29-13.97-5.85-28.02-9.87-41.48-11.64-13.45-1.78-26.31-1.13-37.98 1.29-7.16 1.83-15.27 4.77-23.93 8.97s-17.92 9.73-27.34 16.31c-9.46 6.6-19.05 14.07-28.31 22.13-9.25 8.06-18.15 16.68-26.21 25.62-8.07 8.95-15.29 18.21-21.26 27.56-5.98 9.37-10.72 18.83-13.89 28.22 1.67 1.77 3.4 3.42 5.17 5.01 7.3 6.56 15.45 11.63 24.37 15.34 11.08 4.59 23.58 7.17 37.17 8.05 7 0.52 14.31 0.76 21.95 0.77 7.63 0.01 15.58-0.22 23.75-0.6 4.34-0.21 8.73-0.48 13.15-0.82 3.92-0.3 7.86-0.64 11.82-1.04 8.43-0.84 16.9-1.92 25.29-3.26 8.38-1.33 16.64-2.95 24.65-4.89s15.74-4.18 23.1-6.74c7.36-2.55 14.34-5.46 20.92-8.68 6.57-3.22 12.79-6.8 18.68-10.73 11.77-7.87 22.35-17.05 31.29-27.41 3.97-4.59 7.59-9.41 10.88-14.42 1.56-2.37 3.04-4.79 4.44-7.25 2.26-4.08 4.35-8.24 6.17-12.52zm-72.9 4.76c0.73 2.18 0.12 5-2.48 5.89-39.18 13.44-74.44 37.49-113.63 50.94-4.89 1.68-6.97-6.75-2.11-8.41 37.46-12.86 71.34-35.4 108.5-49.12-28.02-2.01-56.32-3.8-84.12-2.56-0.82 0.68-1.93 0.93-3.24 0.41-0.18-0.07-0.36-0.15-0.54-0.22-3.09 0.17-6.17 0.38-9.24 0.63-0.6 0.62-1.39 1.07-2.38 1.2-33.74 4.31-60.34 33.18-89.17 50.36-4.49 2.68-8.5-4.86-4-7.54 18.95-11.29 36.6-26.73 55.83-37.88-18.27 4.33-36.07 10.91-53.14 20.68-1.58 0.91-3.09 0.56-4.21-0.37 3.42-4.38 6.85-8.57 10.29-12.52 25.74-12.77 52.82-19.12 80.55-21.86-13.58-6.85-27.24-13.57-42.38-10.27 5.73-3.18 11.59-5.97 17.57-8.48 14.42 3.01 27.7 11.69 42.07 17.5 31.21-1.52 63.03 0.75 94.46 2.93-21.63-23.49-48.76-35.98-78.11-43.21 2.72-1.16 5.45-2.29 8.2-3.35 1.88-0.7 3.78-1.29 5.7-1.83 26.86 8.19 51.54 21.57 71.46 44.03 1.38 1.55 1.39 3.42 0.68 4.9 19.35 1.32 38.53 2.47 57.3 2.55 5.11 0.02 5.11 8.75 0 8.73-20.82-0.09-42.23-1.57-63.86-3.13z"/>
  <path class="st4" d="m834.07 1545.8c-0.71-2.41-1.34-4.94-1.94-7.57-0.13-0.55-0.25-1.13-0.37-1.69-0.18 26.37-0.24 52.74-0.63 79.1-0.39 3.07-0.8 6.14-1.17 9.21-4.24 34.83-8.18 71.67-4.18 107.07-0.57 6.36-1.21 12.72-1.91 19.07h13.05c-1.4-6.52-2.45-13.11-3.21-19.75 3.47-39.1 4.87-78.27 5.54-117.46 1.93-14.93 4.1-29.81 6.26-44.71 0.17-1.17 0.34-2.34 0.5-3.52-1.92-2.3-3.79-4.62-5.54-6.99-2.61-3.92-4.74-8.13-6.4-12.76z"/>
  <path class="st6" d="m1168.2 1534.4c-6.03-6.54-11.09-14.02-15.41-22.02-4.33-8-7.98-16.53-11.46-25.14-3.48-8.6-7.05-17.27-11.08-25.73-4.6-8.3-9.84-16.53-16.11-24.33-6.88-7.86-14.54-15.41-23.23-22.27-7.01-5.66-13.93-10.38-20.73-14.44-6.84-4.09-13.46-7.47-19.94-10.4-6.28-2.84-12.32-5.09-18.05-6.82-5.73-1.74-11.15-2.87-16.44-3.67-3.52-0.53-6.75-0.77-9.82-0.66-3.08 0.12-6.04 0.56-9.06 1.38-3 0.84-6.11 2.06-9.5 3.71-3.4 1.65-7.15 3.67-11.47 6.09-3.33 1.87-8.77 4.65-15.4 7.93-1.9 1.24-3.78 2.5-5.66 3.8-0.27 0.27-0.58 0.55-0.95 0.85-4.62 3.69-9.12 7.45-13.32 11.36-4.03 4.05-7.65 8.33-10.79 12.93l2.82 0.62c0.06 0.76 0.14 1.53 0.21 2.29-1.55-1.07-3.11-1.98-4.71-2.71-3.05-1.4-6.28-2.14-9.77-2.09-3.54 0.08-7.45 0.97-11.88 2.9-2.23 0.95-4.64 2.21-7.24 3.76-2.17 1.24-4.51 2.6-7.03 4.03 0.27-0.02 0.54-0.02 0.82-0.05 0.09 9.31 0.39 18.55 0.99 27.71 20.37 6.4 38.97 17.08 56.47 30.21 4.2 3.15 0.24 10.72-4 7.54-16.13-12.09-33.14-22.1-51.75-28.39 1.4 15.69 3.79 31.11 7.61 46.15 16.59 17.44 35.95 31.14 56.07 43.12 4.5 2.68 0.5 10.22-4 7.54-16.61-9.9-32.72-21.01-47.26-34.29 3.49 10.41 7.77 20.62 13.02 30.58 18.13 34.44 50.95 68.23 50.78 110.57-0.02 5.63-7.95 5.64-7.93 0 0.1-24.51-13.09-46.2-25.38-65.58-7.8-12.3-15.71-24.55-22.65-37.43-9.25 13.51-22.02 24.76-26.1 41.57-1.32 5.43-8.97 3.13-7.64-2.32 4.74-19.51 19.64-31.39 29.44-47.58-1.77-3.59-3.44-7.24-5.01-10.96-4.23-10.07-7.64-20.27-10.38-30.59-0.95-1.13-1.17-2.41-0.92-3.59-6.81-27.32-9.03-55.5-9.28-84.45 1.38 0.18 2.77 0.28 4.16 0.31-3.75-3.16-7.28-5.8-10.71-7.68-3.79-2.03-7.5-3.16-11.04-3.51-3.55-0.35-6.91 0.04-10.03 1.05-3.12 1.02-5.99 2.63-8.62 4.73-2.5 0.93-4.75 2.23-6.78 3.85-0.12 0.1-0.25 0.18-0.37 0.29-2.11 1.76-3.98 3.89-5.63 6.32-0.92 1.36-1.75 2.83-2.53 4.37-0.62 1.22-1.2 2.48-1.74 3.8-1.2 3.07-2.22 6.39-3.02 9.97-1.1 4.92-1.91 10.14-2.42 15.72-0.26 2.79-0.42 5.68-0.5 8.64-0.08 2.98-0.08 6.04 0.01 9.15 0.09 3.12 0.28 6.31 0.55 9.53s0.62 6.45 1.04 9.66c0.41 3.21 0.87 6.37 1.37 9.43 0.49 3.07 1.02 6.04 1.57 8.91 0.43 2.23 0.88 4.37 1.35 6.48 0.12 0.56 0.24 1.14 0.37 1.69 0.6 2.63 1.23 5.15 1.94 7.57 1.66 4.63 3.79 8.84 6.41 12.78 1.75 2.37 3.62 4.69 5.54 6.99 1.16 1.38 2.34 2.76 3.53 4.13 2.39 2.73 4.71 5.5 6.92 8.35 2.2 2.84 4.24 5.79 6.17 8.9s3.78 6.42 5.61 9.94 3.72 7.27 5.67 11.14c1.55 3.08 3.19 6.33 4.91 9.72 1.73 3.39 3.53 6.87 5.4 10.39 1.9 3.57 3.95 7.12 6.2 10.57 2.25 3.44 4.69 6.69 7.3 9.74 2.52 2.78 5.12 5.26 7.6 7.41 2.48 2.14 4.9 4 7.32 5.69 2.36 1.63 4.73 3.14 7.12 4.58s4.86 2.86 7.47 4.31 5.36 2.98 8.15 4.52 5.62 3.06 8.31 4.48c5.37 2.83 10.13 5.34 14.06 7.61 9.64 5.55 13.05 5.79 14.37 2.5 0.66-1.65 0.82-4.18 0.86-7.33 0.03-3.14-0.03-6.93 0.22-11.08 0.58-5.41 1.06-11.08 1.75-17.04 0.69-6.02 1.51-12.42 2.34-19.26 0.83-6.82 1.53-14.2 2.11-22 0.59-7.96 1-16.18 1.23-24.53s0.19-16.72-0.13-25.09c-0.37-8.33-0.97-16.62-1.77-24.78-0.49-4.9-1.1-9.76-1.83-14.58-0.17-1.09-0.35-2.2-0.53-3.31 2.63 2.47 5.43 4.91 8.44 7.34 8.95 7.14 17.96 13.42 27.01 18.82 9.05 5.38 18.05 9.92 26.95 13.65 8.86 3.72 17.54 6.66 26.13 8.95 0.1 0.03 0.2 0.05 0.3 0.08-0.13-0.28-0.23-0.59-0.31-0.93-7.81-33.54-13.68-67.59-23.79-100.45-1.64-5.35 6.01-7.63 7.65-2.32 10.1 32.84 15.97 66.89 23.78 100.44 0.51 2.19-0.42 3.86-1.79 4.74 6.35 1.61 12.63 2.89 18.8 3.84 6.11 0.95 11.99 1.66 17.7 2.02 4.22 0.35 8.35 0.49 12.36 0.45-9.69-20.7-14.32-43.69-23.92-64.46-2.32-5.01 4.53-9.43 6.85-4.41 9.99 21.62 14.6 45.64 25.1 66.96 0.26 0.52 0.39 1.03 0.46 1.53 3.55-0.28 7-0.72 10.36-1.38 4.73-0.77 9.28-1.94 13.63-3.51 6.41-2.3 11.98-6.83 17.81-11.17 5.84-4.33 12.14-8.53 19.61-10.24-8.19-4-15.26-9.58-21.29-16.11zm-334.85-35.7c13.1-15.34 30.31-24.96 45.73-37.08 4.17-3.27 8.13 4.3 4 7.54-14.87 11.68-31.49 20.91-44.12 35.71-3.52 4.11-9.11-2.07-5.61-6.17zm20.76 59.15c-2.73 4.73-9.59 0.36-6.84-4.41 10.17-17.62 20.61-35.52 37.1-46.69 4.37-2.96 8.35 4.59 4 7.54-15.3 10.36-24.84 27.24-34.26 43.56zm307.35-14.01c-40.4-6.72-57.04-46-87.96-69.6-23.91-18.24-49.81-32.93-77.18-42.35 4.1 25.11 10.06 49.75 15.42 74.55 1.18 5.48-6.46 7.8-7.64 2.32-5.55-25.66-11.75-51.14-15.85-77.15-0.13-0.84-0.05-1.6 0.16-2.28-14.29-4.33-28.95-7.22-43.93-8.41 3.9-2.12 7.61-4.71 11.07-7.62 15.86 2.08 31.38 5.96 46.48 11.39 0.47-0.66 1.18-1.17 2.19-1.36 26.45-5.01 55.32-9.2 81.39 0 4.85 1.72 2.77 10.14-2.11 8.42-21.6-7.62-45.45-5.51-67.84-1.69 17.84 7.65 34.99 17.43 51.28 28.93 0.71 0.51 1.42 1.02 2.13 1.55 0.85-0.76 1.98-1.15 3.33-0.82 16.67 4.02 33.44 5.55 50.48 5.67 5.11 0.03 5.11 8.77 0 8.73-14.21-0.09-28.26-1.19-42.2-3.78 26.27 24.61 47.27 59.14 82.89 65.08 5.04 0.84 2.89 9.25-2.11 8.42z"/>
  <path class="st6" d="m717.17 1446.6c0 0.02 0.02 0.22 0.06 0.72 0.3 2.74-0.05-0.7-0.06-0.72z"/>
  <path class="st6" d="m717.14 1446.6c-3.68-29.03-61.52-48.91-82.45-51.48-33.57-4.13-57.68 7.28-76.49 38.25-23.67 38.94-52.26 81.47-60.73 128.13-6.28 42.22 6.11 96.39-7.11 135.53 45.37-24.7 80.22-66.31 125.61-90.61 46.27-24.78 102.65-84.85 101.86-149.1-0.04-3.32-0.23-6.64-0.58-9.98-0.04-0.25-0.08-0.5-0.11-0.74zm-72.4 84.01c-8.13-26.21-19.09-51.55-24.32-78.73-4.1 7.95-7.3 16.09-9.21 23.45-5.01 19.28-6.38 34.86-18.83 47.97 6.92 20.51 8.12 42.67 15.08 63.22 1.79 5.28-5.88 7.54-7.64 2.32-6.55-19.36-8.01-40.15-13.93-59.65-16.73 14.26-20.97 37.18-29.87 57.21 1.4 10.38 3.8 20.57 6.52 30.69 1.46 5.41-6.2 7.71-7.64 2.32-1.89-7.04-3.62-14.14-5-21.3-0.92 1.47-1.88 2.9-2.91 4.3-15.04 20.39-30.36 40.94-40.6 64.72-0.36-5.33-0.8-10.66-1.27-15.96 8.73-16.86 19.59-32.32 30.77-47.48 4.8-6.51 8.53-13.23 11.8-20.18-0.14-1.3-0.27-2.61-0.38-3.92-11.71 15.52-28.57 22.26-45.32 29.58-0.06-1.89-0.1-3.77-0.12-5.62-0.01-1.22-0.1-2.38-0.18-3.54 15.68-6.69 31.77-13.26 41.73-29.1 0.93-1.47 2.27-2.02 3.56-1.94 0.84-3.65 5.68-3.94 7.27-0.88 1.6-4.03 3.18-8.13 4.84-12.31 4.23-10.62 9.42-22.77 17.96-30.11 0.09-0.08 0.19-0.16 0.28-0.24-21.48 10.9-45.02 16.28-65.48 29.62-4.41 2.87-8.4-4.68-4-7.54 21.95-14.31 47.36-19.42 70.03-32.03 3.11-1.73 5.97 1.25 6.01 4.11 8.02-7.54 13.74-15.19 16.06-28.56 2.02-11.74 4.67-22.15 9.66-32.76 1.32-2.81 2.7-5.68 4.13-8.56-18.57 3.39-36.24 10.01-53.95 16.96-4.83 1.9-6.89-6.54-2.11-8.42 18.61-7.32 37.2-14.27 56.81-17.47 1.36-0.22 2.49 0.25 3.34 1.05 7.91-14.49 17.76-28.22 31.39-35.55 4.58-2.45 8.6 5.08 4 7.54-10.16 5.46-19.85 16.4-27.55 28.79 0.78 0.49 1.4 1.35 1.62 2.67 4.86 28.8 16.55 55.41 25.11 82.98 1.64 5.37-6.02 7.64-7.66 2.35z"/>
  <path class="st6" d="m929.84 1142c23.53-25.42 55.44-28.41 83.37-16.13 14.85-14.12 32.68-23.33 49.57-34.05 4.44-2.81 8.43 4.73 4 7.54-15.36 9.75-31.76 18.13-45.59 30.5 9.67 5.42 18.67 12.7 26.46 21.52 3.47 3.93 6.56 8.03 9.33 12.26 0.86-0.89 2.09-1.36 3.57-0.93 21.62 6.17 42.53 14.67 63.42 23.3 4.74 1.96 2.69 10.4-2.11 8.42-19.71-8.14-39.44-16.14-59.77-22.2 9.11 16.84 14.31 35.6 19.44 55.38 9.41 36.3 16.27 73.29 17.61 111.09 0.2 5.63-7.73 5.61-7.93 0-1.17-33.33-6.61-66.27-14.67-98.38-2.89-11.49-5.6-23.69-9.18-35.51-0.88 24.8-8.62 48.3-16.03 71.63-1.83-2.95-3.76-5.75-5.66-8.4 6.75-21.06 13.29-42.41 13.83-64.73 0.09-3.91 3.97-5.1 6.26-3.56-4.09-12.42-9.34-24.23-17.02-34.11-3.75-4.83-7.88-9.35-12.3-13.46-10.64 15.55-15.82 34.27-22.02 52.28-1.79 5.21-9.46 2.96-7.64-2.32 6.62-19.24 12.29-38.64 23.48-55.29-27.85-22.27-64.64-28.69-92.5-1.07 24.27 4.76 33.53 33.41 49.72 59.52 7.25 11.69 14.7 23.22 22.3 34.27s15.25 21.6 23.03 31.56c7.21 10.24 13.94 20.29 19.96 29.97 5.47 10.11 10.42 19.71 15.11 28.56 4.69 8.84 9.41 16.73 14.53 23.28 5.12 6.54 10.87 11.6 17.49 14.83 3.26-10.86 6.5-22 9.65-33.32 3.16-11.33 6.25-22.78 9.23-34.15 3-11.35 5.71-22.38 8.02-32.87 2.31-10.5 4.22-20.47 5.61-29.75 2.79-18.55 2.79-34.1 0.13-47.44-2.8-12.81-7.18-24.35-12.41-34.96s-11.26-20.56-18.14-30.01-14.64-18.61-23.31-27.58c-7.12-7.37-15.24-12.75-23.96-16.28-8.76-3.69-18.09-5.39-27.61-5.53-9.52-0.16-19.22 1.31-28.73 3.88-9.51 2.59-18.85 6.27-27.65 10.57-21.4 10.44-43.41 38.75-55.44 64.48l4.49-2.8 9.1-5.67c-0.46-1.39-0.29-2.99 0.96-4.34z"/>
  <path class="st6" d="m849.34 1113.2c-0.32 5.71 0.31-5.39 0 0z"/>
  <path class="st6" d="m805.08 1231c2.22-3.07 4.38-6.18 6.48-9.34 21.17-31.9 35.52-68.18 37.79-108.45 2.37-42.17-11.25-73.42-40.85-100.53-9.81-8.98-22.23-11.11-32.97-3.1-2.48 1.6-4.67 2.39-6.68 2.62 0.02 0.48-0.03 0.99-0.19 1.55-1.26 4.29-2.13 8.57-2.7 12.85 18.98 21.36 42.88 36.8 57.8 62.39 2.77 4.76-4.09 9.13-6.85 4.41-13.29-22.79-34.24-37.3-51.86-55.56-0.52 14.86 1.31 29.75 1.08 44.76 1.65-0.11 3.31 0.8 3.86 3.08 6.88 28.82 28.75 50.07 44.52 73.21 3.08 4.51-3.81 8.86-6.84 4.4-14.52-21.3-33.59-40.88-42.56-66.03-2.54 19.91-8.99 38.2-16.54 56.47-1.69 4.08-3.29 8.18-4.83 12.3 0.91 23.55 20.39 41.59 26.24 63.78 1.43 5.42-6.22 7.72-7.64 2.32-4.88-18.49-18.13-33.37-23.86-51.23-13.4 40.1-21.51 81.52-33.24 122.57-1.53 5.35-9.18 3.07-7.65-2.32 11.34-39.71 18.72-80.44 31.73-119.39-11.98 14.34-29.7 21.98-42.28 36.29-3.56 4.06-9.16-2.13-5.6-6.18 15.53-17.67 39.95-25.07 49.59-48.61 1.11-2.71 3.53-2.73 5.27-1.41 0.18-0.34 0.4-0.65 0.65-0.91 0.36-0.9 0.72-1.81 1.09-2.71 10.48-25.41 20.66-50.46 19.89-79.02-0.11-4.25-0.31-8.49-0.5-12.72-19.23 21.71-39.53 42.22-58.5 64.21-3.53 4.09-9.12-2.1-5.6-6.17 20.65-23.96 42.9-46.15 63.61-70.04-0.45-14.49-0.1-28.86 4.08-43.03 0.09-0.31 0.21-0.6 0.34-0.86-4.83-2.49-9.29-6.91-15.68-7.81-68.5-11.4-73.29 113.2-79.87 158.71-0.97 6.47-1.76 22.99-1.38 43.09 0.08 4.39 0.22 8.95 0.43 13.61 2.38 54.19 13.67 122.34 49.99 98.81 2.45-1.7 4.89-3.44 7.33-5.2 2.27-1.64 4.53-3.31 6.78-5 28.04-21.13 54.89-46.5 76.12-75.81z"/>
  <path class="st5" d="m1030.3 1146.9c-11.2 16.66-16.87 36.05-23.48 55.29-1.82 5.28 5.85 7.54 7.64 2.32 6.2-18.01 11.38-36.73 22.02-52.28 4.42 4.11 8.54 8.62 12.3 13.46 7.67 9.88 12.92 21.69 17.02 34.11-2.3-1.54-6.17-0.36-6.26 3.56-0.54 22.32-7.08 43.67-13.83 64.73 1.9 2.65 3.83 5.45 5.66 8.4 7.41-23.33 15.15-46.83 16.03-71.63 3.58 11.81 6.29 24.01 9.18 35.51 8.07 32.11 13.5 65.05 14.67 98.38 0.19 5.61 8.13 5.63 7.93 0-1.33-37.8-8.2-74.79-17.61-111.09-5.13-19.78-10.33-38.54-19.44-55.38 20.33 6.06 40.06 14.06 59.77 22.2 4.8 1.98 6.85-6.47 2.11-8.42-20.89-8.63-41.8-17.13-63.42-23.3-1.49-0.42-2.71 0.04-3.57 0.93-2.77-4.23-5.86-8.33-9.33-12.26-7.78-8.82-16.79-16.1-26.46-21.52 13.83-12.37 30.22-20.75 45.59-30.5 4.43-2.81 0.44-10.36-4-7.54-16.89 10.72-34.72 19.94-49.57 34.05-27.93-12.28-59.83-9.29-83.37 16.13-1.25 1.35-1.41 2.95-0.95 4.32 0.54 1.59 1.92 2.87 3.46 3.08 1.03 0.14 2.14-0.19 3.1-1.23 0.76-0.83 1.54-1.62 2.32-2.39 27.85-27.62 64.64-21.2 92.49 1.07z"/>
  <path class="st5" d="m1163.6 1535.4c-35.62-5.93-56.61-40.46-82.89-65.08 13.94 2.58 27.99 3.68 42.2 3.78 5.11 0.03 5.11-8.7 0-8.73-17.04-0.12-33.81-1.65-50.48-5.67-1.35-0.33-2.48 0.07-3.33 0.82-0.7-0.53-1.41-1.04-2.13-1.55-16.29-11.51-33.44-21.29-51.28-28.93 22.39-3.82 46.24-5.93 67.84 1.69 4.88 1.72 6.96-6.71 2.11-8.42-26.07-9.2-54.93-5.01-81.39 0-1.02 0.19-1.73 0.7-2.19 1.36-15.09-5.43-30.62-9.31-46.48-11.39-3.46 2.91-7.17 5.5-11.07 7.62 14.97 1.19 29.64 4.08 43.93 8.41-0.21 0.68-0.3 1.44-0.16 2.28 4.1 26.01 10.31 51.49 15.85 77.15 1.18 5.48 8.82 3.16 7.64-2.32-5.36-24.81-11.32-49.45-15.42-74.55 27.37 9.42 53.28 24.1 77.18 42.35 30.92 23.6 47.56 62.88 87.96 69.6 5 0.82 7.15-7.59 2.11-8.42z"/>
  <path class="st5" d="m1072.6 1566.1c-7.81-33.54-13.68-67.59-23.78-100.44-1.64-5.31-9.29-3.04-7.65 2.32 10.11 32.85 15.97 66.9 23.79 100.45 0.08 0.34 0.18 0.65 0.31 0.93 1.08 2.42 3.71 2.67 5.55 1.48 1.36-0.89 2.29-2.55 1.78-4.74z"/>
  <path class="st5" d="m1102.6 1508.3c-2.32-5.02-9.16-0.6-6.85 4.41 9.6 20.77 14.24 43.76 23.92 64.46 0.39 0.83 0.77 1.67 1.18 2.5 2.19 4.44 7.87 1.37 7.3-2.88-0.07-0.5-0.2-1.01-0.46-1.53-10.5-21.31-15.1-45.34-25.09-66.96z"/>
  <path class="st5" d="m885.1 1435.5c0.25 28.95 2.47 57.13 9.28 84.45-0.25 1.17-0.02 2.46 0.92 3.59 2.74 10.32 6.14 20.52 10.38 30.59 1.57 3.72 3.24 7.37 5.01 10.96-9.8 16.19-24.7 28.07-29.44 47.58-1.33 5.45 6.32 7.76 7.64 2.32 4.08-16.81 16.85-28.06 26.1-41.57 6.95 12.88 14.86 25.13 22.65 37.43 12.29 19.38 25.48 41.07 25.38 65.58-0.02 5.64 7.91 5.63 7.93 0 0.18-42.34-32.65-76.13-50.78-110.57-5.25-9.97-9.53-20.18-13.02-30.58 14.54 13.28 30.65 24.39 47.26 34.29 4.5 2.68 8.5-4.87 4-7.54-20.11-11.98-39.48-25.68-56.07-43.12-3.83-15.05-6.21-30.47-7.61-46.15 18.61 6.29 35.62 16.3 51.75 28.39 4.24 3.18 8.2-4.39 4-7.54-17.5-13.12-36.1-23.81-56.47-30.21-0.6-9.16-0.9-18.4-0.99-27.71-0.27 0.02-0.54 0.03-0.82 0.05-0.98 0.06-1.97 0.09-2.96 0.07-1.37-0.02-2.76-0.13-4.14-0.31z"/>
  <path class="st5" d="m883.11 1469.1c4.13-3.24 0.17-10.81-4-7.54-15.41 12.11-32.63 21.73-45.73 37.08-3.5 4.1 2.09 10.28 5.61 6.18 12.62-14.81 29.25-24.04 44.12-35.72z"/>
  <path class="st5" d="m884.39 1506.7c-16.49 11.17-26.93 29.07-37.1 46.69-2.75 4.77 4.11 9.14 6.84 4.41 9.42-16.32 18.96-33.21 34.26-43.56 4.35-2.95 0.37-10.5-4-7.54z"/>
  <path class="st5" d="m627.27 1445.3c-0.22-1.33-0.84-2.19-1.62-2.67 7.7-12.39 17.39-23.33 27.55-28.79 4.59-2.47 0.57-10-4-7.54-13.63 7.32-23.47 21.05-31.39 35.55-0.85-0.8-1.99-1.27-3.34-1.05-19.61 3.19-38.2 10.15-56.81 17.47-4.78 1.88-2.72 10.32 2.11 8.42 17.71-6.95 35.38-13.58 53.95-16.96-1.43 2.88-2.81 5.74-4.13 8.56-4.99 10.61-7.64 21.02-9.66 32.76-2.32 13.37-8.04 21.02-16.06 28.56-0.04-2.87-2.9-5.84-6.01-4.11-22.67 12.61-48.07 17.72-70.03 32.03-4.4 2.86-0.41 10.41 4 7.54 20.46-13.35 44.01-18.72 65.48-29.62-0.09 0.08-0.18 0.16-0.28 0.24-8.54 7.34-13.72 19.49-17.96 30.11-1.67 4.18-3.25 8.28-4.84 12.31-1.59-3.06-6.42-2.77-7.27 0.88-1.29-0.08-2.63 0.46-3.56 1.94-9.95 15.84-26.04 22.41-41.73 29.1 0.08 1.16 0.17 2.32 0.18 3.54 0.01 1.85 0.06 3.73 0.12 5.62 16.75-7.32 33.61-14.06 45.32-29.58 0.11 1.31 0.24 2.61 0.38 3.92-3.27 6.95-7 13.67-11.8 20.18-11.18 15.16-22.03 30.62-30.77 47.48 0.47 5.3 0.91 10.63 1.27 15.96 10.24-23.77 25.56-44.33 40.6-64.72 1.03-1.39 2-2.83 2.91-4.3 1.37 7.16 3.11 14.26 5 21.3 1.44 5.39 9.1 3.08 7.64-2.32-2.72-10.12-5.12-20.31-6.52-30.69 8.9-20.03 13.14-42.95 29.87-57.21 5.93 19.5 7.38 40.29 13.93 59.65 1.77 5.22 9.43 2.96 7.64-2.32-6.96-20.55-8.17-42.71-15.08-63.22 12.45-13.1 13.81-28.69 18.83-47.97 1.92-7.36 5.11-15.5 9.21-23.45 5.24 27.18 16.19 52.52 24.32 78.73 1.64 5.3 9.3 3.02 7.64-2.32-8.54-27.6-20.22-54.21-25.09-83.01z"/>
  <path class="st5" d="m632.7 1168.4c5.11 0.01 5.11-8.71 0-8.73-18.76-0.08-37.94-1.23-57.3-2.55 0.71-1.48 0.7-3.35-0.68-4.9-19.92-22.45-44.61-35.84-71.46-44.03-1.91 0.54-3.82 1.13-5.7 1.83-2.75 1.06-5.48 2.19-8.2 3.35 29.35 7.23 56.48 19.71 78.11 43.21-31.43-2.18-63.25-4.45-94.46-2.93-14.36-5.81-27.65-14.49-42.07-17.5-5.98 2.51-11.84 5.3-17.57 8.48 15.15-3.29 28.8 3.43 42.38 10.27-27.72 2.74-54.81 9.09-80.55 21.86-3.44 3.95-6.87 8.13-10.29 12.52 1.11 0.93 2.62 1.27 4.21 0.37 17.07-9.77 34.87-16.35 53.14-20.68-19.23 11.15-36.88 26.59-55.83 37.88-4.49 2.68-0.49 10.22 4 7.54 28.83-17.18 55.43-46.05 89.17-50.36 0.99-0.13 1.78-0.57 2.38-1.2 3.07-0.25 6.15-0.46 9.24-0.63 0.18 0.07 0.36 0.15 0.54 0.22 1.32 0.52 2.42 0.27 3.24-0.41 27.79-1.25 56.09 0.55 84.12 2.56-37.16 13.72-71.04 36.26-108.5 49.12-4.87 1.67-2.79 10.1 2.11 8.41 39.19-13.45 74.45-37.5 113.63-50.94 2.6-0.89 3.21-3.71 2.48-5.89 21.64 1.56 43.05 3.04 63.86 3.13z"/>
  <path class="st5" d="m756.93 1054.5c-20.71 23.89-42.96 46.09-63.61 70.04-3.52 4.08 2.08 10.27 5.6 6.17 18.96-21.99 39.27-42.5 58.5-64.21 0.19 4.23 0.38 8.47 0.5 12.72 0.77 28.56-9.41 53.6-19.89 79.02-0.37 0.9-0.73 1.81-1.09 2.71-0.25 0.26-0.47 0.56-0.65 0.91-1.74-1.32-4.16-1.29-5.27 1.41-9.64 23.54-34.06 30.94-49.59 48.61-3.56 4.05 2.05 10.23 5.6 6.18 12.58-14.32 30.3-21.95 42.28-36.29-13.01 38.95-20.39 79.68-31.73 119.39-1.54 5.39 6.11 7.68 7.65 2.32 11.73-41.05 19.84-82.47 33.24-122.57 5.73 17.86 18.98 32.74 23.86 51.23 1.42 5.4 9.07 3.1 7.64-2.32-5.86-22.19-25.34-40.23-26.24-63.78 1.54-4.12 3.14-8.22 4.83-12.3 7.55-18.27 14-36.56 16.54-56.47 8.97 25.15 28.04 44.73 42.56 66.03 3.03 4.45 9.92 0.1 6.84-4.4-15.78-23.14-37.65-44.39-44.52-73.21-0.54-2.28-2.21-3.18-3.86-3.08 0.23-15.01-1.6-29.9-1.08-44.76 17.63 18.27 38.57 32.78 51.86 55.56 2.76 4.73 9.62 0.35 6.85-4.41-14.91-25.59-38.81-41.02-57.8-62.39 0.58-4.28 1.44-8.57 2.7-12.85 0.16-0.55 0.21-1.06 0.19-1.55-0.14-3.93-5.62-5.36-7.5-1.64-0.13 0.26-0.25 0.55-0.34 0.86-4.16 14.21-4.52 28.58-4.07 43.07z"/>
  <polygon class="st7" points="737.64 1906.8 743.13 1906.8 745.02 1921.1 861.28 1921.1 863.17 1906.8 868.66 1906.8 870.07 1895.8 736.23 1895.8"/>
  <polygon class="st7" points="823.86 1751 812.9 1751 804.96 1751 779.83 1751 771.91 1751 770.7 1751 762.78 1751 703 1751 720.8 1776 723.82 1799.4 882.48 1799.4 885.49 1776 903.3 1751 836.91 1751"/>
  <polygon class="st8" points="723.82 1799.4 736.23 1895.8 870.07 1895.8 882.48 1799.4"/>
  <rect class="st9" x="2280.6" y="885.35" width="23.64" height="1042"/>
  <polygon class="st10" points="2210 885.35 2042.1 1927.3 2065.8 1927.3 2233.6 885.35"/>
  <polygon class="st10" points="2374.9 885.35 2542.8 1927.3 2519.1 1927.3 2351.3 885.35"/>
  <rect class="st11" x="2094.7" y="716.26" width="177.12" height="171.15"/>
  <rect class="st11" x="2387.2" y="716.26" width="102.98" height="171.15"/>
  <rect class="st12" x="2271.8" y="716.26" width="115.34" height="171.15"/>
  <rect class="st13" x="2094.7" y="874.71" width="395.43" height="12.69"/>
  <rect class="st13" x="2094.7" y="716.26" width="395.43" height="12.69"/>
  <path class="st3" d="m1219.9 1705.5h-0.15l81.63 1.94-81.48-1.94z"/>
  <path class="st3" d="m1844.4 1680.7c-1.46 4.6-3.17 8.17-4.82 10.83 1.65-2.65 3.36-6.23 4.82-10.83 1.83-5.72 3.2-13.22 3.72-21.32 0.01-0.39 0-0.75 0.01-1.13 0 0.38 0 0.74-0.01 1.13-0.52 8.1-1.9 15.6-3.72 21.32z"/>
  <path class="st3" d="m1614.7 949.92c4.91 0.7 9.88 1.43 14.89 2.2 0.37 0.06 0.74 0.13 1.11 0.19-0.37-0.06-0.74-0.13-1.11-0.19-5.02-0.77-9.98-1.5-14.89-2.2z"/>
  <path class="st3" d="m1913.9 1235.8c-2.28 2.41-4.52 4.84-6.69 7.29-1.91 2.15-3.77 4.32-5.6 6.5-1.6 1.91-3.17 3.84-4.7 5.78-2.7 3.39-5.3 6.82-7.82 10.29-1.89 2.6-3.73 5.23-5.53 7.87-2.86 4.21-5.59 8.49-8.22 12.8-2.32 3.8-4.56 7.64-6.71 11.51-2.27 4.09-4.43 8.23-6.52 12.41-7.76 15.49-14.37 31.53-19.96 47.7 5.58-16.17 12.2-32.21 19.96-47.7 2.09-4.18 4.25-8.33 6.52-12.41 1.58-2.85 3.23-5.68 4.9-8.49-1.67 2.82-3.32 5.64-4.9 8.49-10.66 19.24-19.38 39.57-26.47 60.11-1.01 2.94-1.99 5.87-2.94 8.81-3.78 11.76-7.04 23.51-9.84 35.11-2.1 8.71-3.95 17.33-5.57 25.81-0.53 2.82-1.05 5.64-1.54 8.44-1.47 8.37-2.68 16.57-3.68 24.52-1.02 7.96-1.92 15.73-2.69 23.27-0.78 7.53-1.37 14.78-1.8 21.68s-0.74 13.47-0.95 19.63c-0.41 12.31-0.42 23.04-0.27 31.71 0.15 8.66 0.47 15.27 0.71 19.34-10.73-11.86-24.17-22.98-39.96-33.06-8.16-5.02-16.99-9.5-26.33-13.4 8.09 3.38 15.8 7.2 23.03 11.42 1.11 0.65 2.21 1.3 3.29 1.97l0.01 0.01c15.79 10.09 29.23 21.2 39.97 33.07 8.92 9.84 15.94 20.21 20.86 30.97 5.41 11.79 8.29 24.07 8.29 36.69 0 0.21-0.03 0.41-0.03 0.61-0.08 10.77-2.25 21.29-6.28 31.48-0.82 2.07-1.74 4.13-2.71 6.17-4.15 8.71-9.66 17.17-16.47 25.29-0.11 0.13-0.2 0.26-0.31 0.38h-515.18 515.18c0.1-0.13 0.2-0.26 0.31-0.39l81.63-1.94h-0.2l-81.44 1.94c6.81-8.12 12.31-16.58 16.47-25.29 0.98-2.04 1.9-4.1 2.71-6.17 4.04-10.18 6.2-20.71 6.28-31.47 0-0.21 0.03-0.41 0.03-0.61 0-12.61-2.88-24.89-8.28-36.67 0 0 0-0.01-0.01-0.01-4.92-10.76-11.94-21.13-20.86-30.97-0.24-4.08-0.55-10.68-0.71-19.34-0.15-8.68-0.14-19.4 0.27-31.71 0.2-6.16 0.51-12.72 0.95-19.63 0.43-6.9 1.02-14.14 1.8-21.68s1.68-15.31 2.69-23.27c0.99-7.95 2.21-16.14 3.68-24.52 0.49-2.8 1.01-5.62 1.54-8.44 1.63-8.48 3.47-17.1 5.57-25.81 2.8-11.6 6.06-23.35 9.84-35.11 0.95-2.93 1.92-5.87 2.94-8.81 7.09-20.54 15.82-40.88 26.48-60.11 4.58-8.26 9.55-16.38 14.93-24.31 1.8-2.64 3.64-5.27 5.53-7.87 2.51-3.47 5.12-6.9 7.82-10.29 1.54-1.94 3.1-3.86 4.7-5.78 1.83-2.18 3.7-4.35 5.6-6.5 2.16-2.47 4.4-4.9 6.68-7.31 0 0 15.13-11.18 11.1-16.98 4.02 5.8-11.1 16.98-11.1 16.98z"/>
  <path class="st3" d="m1274.2 1680.7c-1.83-5.72-3.2-13.22-3.73-21.32-0.22-10 0.86-18.28 2.42-24.71 1.58-6.39 3.33-11.45 5.22-15.83 1.03-2.32 2.14-4.53 3.29-6.66-1.16 2.14-2.27 4.35-3.29 6.67-1.89 4.38-3.64 9.44-5.22 15.83-1.56 6.43-2.64 14.71-2.42 24.71 0.53 8.1 1.9 15.6 3.73 21.31 1.45 4.6 3.16 8.17 4.82 10.83-0.62 0.57-1.32 1.15-2.08 1.73 0.76-0.58 1.45-1.16 2.08-1.73-1.66-2.65-3.36-6.23-4.82-10.83z"/>
  <path class="st3" d="m1783.8 996.33c-4.01-2.07-8.17-4.05-12.46-5.95 4.29 1.89 8.44 3.88 12.46 5.95z"/>
  <path class="st3" d="m1842.2 1238.5c-1.59 2.11-5.05 6.72-10.06 13.47 5.01-6.75 8.47-11.36 10.06-13.47z"/>
  <path class="st3" d="m1570.8 944.44c0.29 0.03 0.57 0.06 0.86 0.09 1.17 0.12 2.34 0.26 3.51 0.38-1.17-0.13-2.34-0.26-3.51-0.38-0.29-0.03-0.57-0.06-0.86-0.09z"/>
  <path class="st3" d="m1254.7 1126c0.28-16.5 1.86-31.97 5.36-45.93 1.22-4.62 2.71-9.09 4.46-13.41-1.75 4.33-3.25 8.79-4.46 13.42-3.5 13.95-5.08 29.42-5.36 45.92z"/>
  <path class="st3" d="m1371.4 1607.2c6.7 5.52 15.02 10.62 25.26 15.16 14.52 3.68 32.61 6.58 54.11 8.83 22.16 2.31 47.15 3.87 74.12 4.27 11.65 0.17 23.11 0.18 34.41 0.13 11.3 0.05 22.75 0.04 34.4-0.14 26.97-0.4 51.94-1.96 74.1-4.26 21.49-2.24 39.59-5.15 54.11-8.84 10.24-4.55 18.56-9.65 25.26-15.17 7.4-6.1 12.82-12.74 16.4-19.83 6.05-12.52 9.44-24.86 10.04-36.34-0.59 11.49-3.99 23.83-10.04 36.34-3.58 7.09-9 13.73-16.4 19.83-6.7 5.52-15.02 10.62-25.26 15.17-14.52 3.69-32.61 6.59-54.11 8.83-22.15 2.3-47.13 3.86-74.1 4.26-11.64 0.17-23.1 0.19-34.4 0.14-11.3 0.05-22.75 0.04-34.41-0.13-26.97-0.4-51.96-1.96-74.12-4.27-21.5-2.24-39.59-5.15-54.11-8.83-10.24-4.53-18.56-9.63-25.26-15.15-1.91-1.57-3.68-3.18-5.33-4.82 1.65 1.64 3.42 3.25 5.33 4.82z"/>
  <path class="st3" d="m1284.2 1607.3c-0.48 0.78-0.94 1.57-1.41 2.37 0.46-0.8 0.93-1.59 1.4-2.36 0.01 0 0.01-0.01 0.01-0.01z"/>
  <path class="st3" d="m1194.1 1224.8c-0.05-0.09-0.1-0.18-0.14-0.27 0.05 0.09 0.1 0.18 0.14 0.27z"/>
  <path class="st3" d="m1305.5 1565.8z"/>
  <path class="st3" d="m1231.4 1268.3c-1.63-2.3-3.3-4.58-5-6.85 1.7 2.27 3.36 4.55 5 6.85z"/>
  <path class="st3" d="m1305.1 1575.8c0.15-2.5 0.31-5.84 0.45-9.95-0.14 4.1-0.3 7.45-0.45 9.95z"/>
  <path class="st3" d="m1304.5 1505.1 0.03 0.45-0.03-0.45z"/>
  <path class="st3" d="m1773.7 1548.4c-0.01 0.58-0.03 1.16-0.06 1.75 0.02-0.59 0.05-1.18 0.06-1.75z"/>
  <path class="st3" d="m1296.4 1436.1c-0.49-2.8-1.01-5.62-1.54-8.44-0.1-0.51-0.2-1.03-0.3-1.54 0.1 0.51 0.21 1.03 0.3 1.54 0.54 2.82 1.05 5.64 1.54 8.44 1.47 8.38 2.69 16.57 3.68 24.52-0.99-7.95-2.21-16.15-3.68-24.52z"/>
  <path class="st3" d="m1250 1297.8c-0.84-1.52-1.71-3.04-2.58-4.56-2.1-3.65-4.27-7.26-6.53-10.84 3.19 5.07 6.23 10.21 9.11 15.4 7.47 13.49 13.98 27.52 19.65 41.77-2.02-5.08-4.15-10.12-6.39-15.13-4.05-9.04-8.45-17.96-13.26-26.64z"/>
  <path class="st3" d="m1215 1247.2c0.68 0.79 1.35 1.58 2.02 2.38v0.01l-0.01-0.01c-0.65-0.8-1.33-1.59-2.01-2.38z"/>
  <path class="st3" d="m1204.7 1235.8s-7.63-5.64-10.61-10.99c2.99 5.35 10.62 11 10.61 10.99 2.29 2.41 4.52 4.84 6.7 7.29-2.17-2.45-4.41-4.88-6.7-7.29z"/>
  <path class="st3" d="m1692.6 965.38c21.66 5.54 42.59 11.48 62.06 18.26 5.76 2.11 11.33 4.36 16.69 6.73-5.36-2.38-10.93-4.62-16.69-6.73-19.47-6.78-40.4-12.72-62.06-18.26z"/>
  <path class="st3" d="m1706 1518.8c12.77 2.4 24.87 5.54 36.18 9.51-11.31-3.97-23.41-7.11-36.18-9.51z"/>
  <path class="st3" d="m1207 1415.6c-0.01 0-0.39 0.21-1.05 0.65 0.66-0.45 1.05-0.65 1.05-0.65z"/>
  <path class="st3" d="m1201.6 1419.8c0.11-0.11 0.21-0.19 0.31-0.28-0.11 0.09-0.2 0.17-0.31 0.28z"/>
  <path class="st3" d="m1175.4 1421.1c3.66-0.02 7.2-0.24 10.64-0.63-3.44 0.39-6.99 0.59-10.64 0.63z"/>
  <path class="st3" d="m1750.3 1460.2c-1.58 15.94-2.28 31.55-2.8 46.62 0.52-15.07 1.22-30.68 2.8-46.62z"/>
  <path class="st3" d="m1859.9 1185.2c-1.01 10.07-2.44 20.57-4.49 31.57l-0.12 0.63 0.12-0.63c2.06-11 3.48-21.5 4.49-31.57z"/>
  <path class="st3" d="m1863.2 1128.2c0.06-8.7-0.21-17.1-0.95-25.15 0.74 8.05 1.01 16.45 0.95 25.15 0.23 17.9-1.02 36.89-3.25 57.03 2.24-20.14 3.48-39.13 3.25-57.03z"/>
  <path class="st3" d="m1839 1039.9c8.86 12.16 15.6 25.33 19.48 40.13 1.76 7.28 2.95 14.97 3.69 23.02-0.73-8.05-1.92-15.74-3.69-23.02-3.88-14.79-10.62-27.97-19.48-40.13z"/>
  <path class="st14" d="m1927 1440.4c0.51 2.55 0.97 5.42 1.39 8.51 0.13 0.95 0.25 1.92 0.37 2.9 0.17 1.38 0.34 2.79 0.5 4.26 0.23-4.38 0.49-8.26 0.8-11.53 0.57-6.22 1.4-10.59 2.47-13.77 3.29-4 7.52-6.63 12.17-8.86 1.11-0.28 2.13-0.54 3.09-0.8-0.95 0.02-1.87 0.02-2.8 0.03-4.65 0.06-9.1-0.21-13.38-0.74-0.24-0.04-0.5-0.05-0.75-0.08-2.73-0.48-5.52-1.11-8.52-1.94-3.04-0.78-6.57-1.76-10.78-2.8 0.04 0.02 2.13 1.11 5.39 4.2 3.31 3.15 7.02 9.22 10.05 20.62z"/>
  <path class="st15" d="m1862.1 1310.2c2.09-4.18 4.25-8.33 6.52-12.41 2.15-3.87 4.39-7.71 6.71-11.51-0.61 1-1.21 2.01-1.81 3.02-1.67 2.81-3.32 5.64-4.9 8.49-2.26 4.08-4.42 8.23-6.52 12.41z"/>
  <path class="st15" d="m1862.1 1310.2c-7.76 15.49-14.37 31.53-19.96 47.7 5.59-16.18 12.21-32.22 19.96-47.7z"/>
  <path class="st14" d="m1254.7 1126c0.28-16.5 1.86-31.96 5.36-45.92 1.22-4.62 2.71-9.09 4.46-13.42 3.85-9.52 8.94-18.36 15.03-26.72 9.75-11.74 21.49-22.5 35.46-31.94 13.98-9.46 30.49-17.77 49.04-24.98 19.63-7.41 40.83-13.94 62.98-19.55 22.15-5.62 43.96-10.09 64.57-13.35 20.37-2.61 39.73-4.51 58.46-5.87 3.64-0.26 7.24-0.49 10.82-0.72 3.3 0.3 6.61 0.61 9.94 0.95 0.29 0.03 0.57 0.06 0.86 0.09 1.17 0.12 2.34 0.26 3.51 0.38 12.87 1.41 26.01 3.08 39.53 5.01 4.91 0.7 9.88 1.43 14.89 2.2 0.37 0.06 0.74 0.13 1.11 0.19 19.81 3.38 40.65 7.75 61.9 13.07 21.66 5.54 42.59 11.48 62.06 18.26 5.76 2.11 11.33 4.36 16.69 6.73 4.29 1.9 8.44 3.88 12.46 5.95 7.02 3.62 13.61 7.5 19.73 11.63 13.98 9.45 25.71 20.2 35.47 31.94 8.86 12.16 15.6 25.33 19.48 40.13 1.76 7.28 2.95 14.97 3.69 23.02 0.73 8.05 1.01 16.45 0.95 25.15 0.23 17.9-1.01 36.88-3.25 57.03-1.01 10.07-2.44 20.57-4.49 31.57l-0.12 0.63c-0.39 2.06-0.82 4.13-1.27 6.23-0.04 0.21-0.09 0.41-0.13 0.62 8.58-5.79 36.97-24.23 72.01-39.37 0.01-0.01 0.02-0.01 0.03-0.01-0.03-2.46-0.05-4.94-0.09-7.36-0.25-15.98-0.69-31.32-1.16-44.72-0.92-26.87-1.98-45.81-1.98-45.81-1.48-12.11-4.62-24.12-9.08-35.36-4.47-11.23-10.25-21.69-17.03-30.71-6.75-9.02-13.98-17.13-21.11-24.01-7.08-6.94-14.14-12.57-20.63-16.52 0 0-4.65-2.89-12.78-7.3-8.14-4.41-20.12-9.94-34.62-15.41-7.24-2.27-15.18-4.2-23.73-5.9-8.61-1.75-17.71-3.25-27.08-4.47-9.22-1.25-18.6-2.43-28.09-3.46-9.48-1.11-19.12-2.13-28.82-2.94-9.74-0.42-19.51-0.66-29.14-0.84-9.58-0.18-18.94-0.44-27.86-0.71-8.75-0.17-17.13-0.33-25.04-0.47-7.92-0.15-15.4-0.2-22.31-0.15-13.89 0.31-25.51 0.68-33.64 0.93-0.28 0.01-0.53 0.02-0.81 0.03-0.26-0.01-0.53-0.03-0.8-0.04-8.14-0.45-19.77-1.09-33.71-1.76-6.95-0.25-14.49-0.41-22.48-0.46s-16.48-0.05-25.38 0.02c-9.1 0.24-18.66 0.54-28.48 0.85-9.89 0.38-19.92 0.85-29.93 1.47-9.96 0.95-19.83 2.06-29.49 3.25-9.67 1.18-19.2 2.49-28.53 3.91-9.44 1.4-18.57 3.02-27.21 4.84-8.55 1.7-16.49 3.63-23.73 5.9-14.5 5.47-26.48 11-34.62 15.41s-12.78 7.3-12.78 7.3c-6.49 3.96-13.55 9.58-20.63 16.52-7.13 6.89-14.37 15-21.11 24.01-6.78 9.01-12.57 19.48-17.04 30.71-4.46 11.24-7.6 23.25-9.08 35.36 0 0-1.06 18.94-1.98 45.81-0.47 13.4-0.92 28.74-1.16 44.72-0.04 2.42-0.06 4.9-0.09 7.36 0.01 0 0.02 0 0.03 0.01 42.16 18.22 74.7 41.22 74.7 41.22 3.22 3.72 5.92 7.4 8.05 11.02 0 0 0.19 0.24 0.52 0.69-6.79-18.55-11.7-36.18-14.88-53.01-3.91-19.65-6.24-38.12-6.4-55.51 0-0.44-0.02-0.88-0.02-1.32-0.03-0.67-0.01-1.35 0-2.03z"/>
  <path class="st15" d="m1750.8 1455.1c0.24-2.17 0.49-4.34 0.77-6.52 3.15-22.02 8.83-45.12 16.47-68.68 4.19-12.58 9.09-25.54 14.41-38.45 5.31-12.88 10.69-25.45 16.05-37.16 13.05-22.52 24.38-39.39 32.1-50.27 0.52-0.7 1.02-1.38 1.51-2.04 5.01-6.76 8.47-11.36 10.06-13.47 0.65-0.86 1-1.32 1-1.32 2.13-3.62 4.84-7.31 8.05-11.02 0 0 0.94-0.67 2.69-1.84 0.04-0.21 0.09-0.41 0.13-0.62 0.45-2.09 0.88-4.17 1.27-6.23l0.12-0.63c2.05-11 3.48-21.5 4.49-31.57 2.23-20.14 3.47-39.13 3.25-57.03 0.06-8.7-0.21-17.1-0.95-25.15-0.73-8.05-1.92-15.74-3.69-23.02-3.88-14.8-10.62-27.97-19.48-40.13-9.75-11.74-21.49-22.5-35.47-31.94-6.11-4.14-12.7-8.01-19.73-11.63-4.01-2.07-8.17-4.05-12.46-5.95-5.36-2.38-10.93-4.62-16.69-6.73-19.47-6.78-40.41-12.72-62.06-18.26-21.25-5.31-42.09-9.69-61.9-13.07-0.37-0.06-0.74-0.13-1.11-0.19-5.02-0.77-9.98-1.5-14.89-2.2-13.51-1.93-26.65-3.6-39.53-5.01-1.17-0.13-2.35-0.26-3.51-0.38-0.29-0.03-0.57-0.06-0.86-0.09-3.34-0.35-6.64-0.66-9.94-0.95-3.59 0.23-7.18 0.46-10.82 0.72-18.72 1.36-38.09 3.26-58.46 5.87-20.61 3.26-42.42 7.73-64.57 13.35s-43.35 12.14-62.98 19.55c-18.55 7.21-35.05 15.51-49.04 24.98-13.97 9.45-25.71 20.2-35.46 31.94-6.09 8.36-11.18 17.2-15.03 26.72-1.75 4.32-3.24 8.79-4.46 13.41-3.51 13.96-5.08 29.43-5.36 45.93-0.01 0.68-0.04 1.36-0.04 2.05 0 0.43 0.02 0.88 0.02 1.32 0.16 17.38 2.5 35.85 6.41 55.5 3.18 16.84 8.09 34.47 14.88 53.01 1.41 1.87 5.61 7.46 12.04 16.14 7.72 10.88 19.05 27.75 32.1 50.27 5.37 11.7 10.74 24.28 16.06 37.17 5.32 12.92 10.22 25.92 14.43 38.51 5.91 18.16 10.66 36.03 13.97 53.34 0.33 1.05 0.65 2.09 0.96 3.15 5.5 16.08 13.01 32.26 24.39 48.47 8.67 11.54 21.1 22.64 37.77 31.63 9.38-1.28 19.07-2.22 29.07-2.81 31.77-1.91 66.47-2.67 103.06-3.33l0.53 0.01c36.32 0.53 70.66 1.22 102.05 3.14 11.36 0.69 22.33 1.82 32.88 3.43 14.97-8.51 26.32-18.69 34.46-29.14 2.4-3.07 4.65-6.12 6.78-9.16 5.58-7.96 10.28-15.82 14.26-23.62zm-164.66-254.05c0.02 0.4 0.06 0.8 0.06 1.21 0 12.34-8.85 22.61-20.54 24.83v46.7c-8.61-18.19-10.04-34.77-9.35-46.68-11.77-2.16-20.7-12.46-20.7-24.86h-56.1c24.64-11.67 46.33-10.15 57.44-8.07 2.88-8.55 10.18-15.04 19.2-16.76v-56.21c11.19 23.64 10.24 44.56 8.32 56.02 9.04 1.28 16.54 7.32 19.86 15.51h57.96c-23.72 11.25-44.7 10.26-56.15 8.31z"/>
  <path class="st14" d="m1842.7 1644.5c-0.08 10.76-2.25 21.29-6.28 31.47-0.82 2.07-1.74 4.13-2.71 6.17-4.15 8.71-9.66 17.17-16.47 25.29l81.44-1.94c-35.64 0.36-51.75-7.37-59.03-14.04 1.66-2.66 3.36-6.24 4.82-10.83 1.83-5.72 3.2-13.22 3.72-21.32 0.01-0.38 0-0.75 0.01-1.13 0.12-9.48-0.92-17.4-2.42-23.58-1.58-6.39-3.33-11.45-5.22-15.83-1.84-4.14-3.91-7.97-6.11-11.56 5.4 11.79 8.28 24.06 8.28 36.67 0 0.23-0.03 0.42-0.03 0.63z"/>
  <path class="st14" d="m1201.6 1419.8c0.11-0.11 0.21-0.19 0.31-0.28 1.77-1.64 3.16-2.68 4.04-3.27 0.66-0.44 1.04-0.64 1.05-0.65-4.21 1.04-7.74 2.01-10.79 2.8-2.99 0.83-5.79 1.45-8.53 1.94-0.25 0.03-0.5 0.05-0.75 0.08-0.3 0.04-0.6 0.06-0.9 0.09-3.44 0.39-6.98 0.61-10.64 0.63-0.61 0.01-1.22 0.02-1.84 0.02-0.92 0-1.83 0-2.76-0.03 0.94 0.26 1.96 0.51 3.05 0.79 4.66 2.23 8.89 4.86 12.17 8.86 1.06 3.18 1.9 7.55 2.47 13.77 0.31 3.26 0.57 7.15 0.8 11.53 0.27-2.51 0.57-4.88 0.88-7.15 0.02-0.16 0.04-0.31 0.07-0.47 0.4-2.91 0.84-5.62 1.32-8.05 3.03-11.41 6.74-17.47 10.05-20.61z"/>
  <path class="st15" d="m1263.3 1324.5c-4.05-9.05-8.45-17.96-13.26-26.64-0.85-1.53-1.71-3.05-2.59-4.56 0.87 1.51 1.74 3.03 2.58 4.56 4.82 8.67 9.22 17.59 13.27 26.64z"/>
  <polygon class="st15" points="1267.4 1226.1"/>
  <path class="st15" d="m2080.5 1264.8c-1.14-7.86-2.73-15.34-4.65-22.29-1.89-6.87-4.13-13.39-6.5-19.38-4.21-6.47-8.68-12.29-13.31-17.51-4.56-5.28-9.43-9.85-14.68-13.68-5.41-3.75-11.11-6.82-16.93-9.33-5.83-2.51-11.78-4.45-17.81-5.91-24.11-5.8-49.41-3.02-72.55 4.79-2.75 1.1-5.45 2.25-8.12 3.4-0.01 0-0.02 0-0.03 0.01-35.05 15.15-63.43 33.58-72.02 39.38-1.69 1.14-2.63 1.8-2.68 1.84l-0.01 0.01c52.88-13.29 70.33-12.27 73.78-7.31 4.03 5.8-11.1 16.99-11.1 16.99-2.28 2.41-4.52 4.84-6.69 7.29-1.91 2.15-3.77 4.32-5.6 6.5-1.6 1.92-3.17 3.84-4.7 5.78-2.7 3.39-5.3 6.82-7.82 10.29-1.89 2.6-3.73 5.23-5.53 7.87-5.38 7.93-10.35 16.05-14.93 24.31-10.66 19.24-19.39 39.57-26.48 60.11-1.01 2.94-1.99 5.87-2.94 8.81-3.78 11.76-7.04 23.51-9.84 35.11-2.1 8.7-3.95 17.33-5.57 25.81-0.53 2.82-1.05 5.64-1.54 8.44-1.47 8.37-2.69 16.57-3.68 24.52-1.02 7.96-1.92 15.74-2.69 23.27-0.78 7.53-1.37 14.78-1.8 21.68-0.43 6.91-0.74 13.47-0.95 19.63-0.41 12.31-0.42 23.03-0.27 31.71 0.15 8.66 0.46 15.27 0.71 19.34 8.92 9.84 15.94 20.21 20.86 30.97 0 0 0 0.01 0.01 0.01 2.2 3.59 4.27 7.42 6.11 11.56 1.89 4.38 3.63 9.44 5.22 15.83 1.5 6.18 2.55 14.09 2.42 23.58 0 0.38 0 0.75-0.01 1.13-0.53 8.1-1.9 15.6-3.72 21.32-1.46 4.6-3.17 8.17-4.82 10.83 7.27 6.67 23.39 14.4 59.03 14.04h0.2l-81.63 1.94c-0.11 0.13-0.2 0.26-0.31 0.39h-515.18c-0.11-0.13-0.2-0.25-0.32-0.38l-81.63-1.94h0.15-0.15c32.72 0.36 49.02-6.09 57.15-12.3 0.76-0.58 1.45-1.16 2.08-1.73-1.66-2.66-3.37-6.23-4.82-10.83-1.83-5.72-3.2-13.22-3.73-21.32-0.22-9.99 0.86-18.28 2.42-24.71 1.58-6.39 3.33-11.45 5.22-15.83 1.03-2.32 2.14-4.53 3.29-6.67 0.46-0.85 0.93-1.69 1.4-2.51 0.46-0.8 0.93-1.59 1.41-2.37 0-0.01 0.01-0.01 0.01-0.02 4.93-10.76 11.95-21.13 20.86-30.97 0.01-0.16 0.02-0.34 0.03-0.51 0.14-2.5 0.31-5.84 0.45-9.95v-0.04c0.09-2.64 0.17-5.6 0.22-8.84 0.15-8.68 0.14-19.4-0.27-31.71-0.21-6.16-0.51-12.72-0.94-19.63l-0.03-0.45c-0.43-6.77-1.01-13.85-1.77-21.23-0.77-7.54-1.68-15.31-2.69-23.27-0.99-7.95-2.21-16.14-3.68-24.52-0.49-2.8-1.01-5.62-1.54-8.44-0.1-0.51-0.2-1.03-0.3-1.54-1.55-7.99-3.29-16.09-5.27-24.27-2.8-11.61-6.06-23.35-9.84-35.11-0.94-2.93-1.92-5.87-2.93-8.81-2.12-6.14-4.41-12.26-6.83-18.35-5.67-14.25-12.18-28.28-19.65-41.76-2.88-5.2-5.92-10.34-9.11-15.41-1.25-1.98-2.52-3.96-3.82-5.92-1.54-2.32-3.11-4.63-4.72-6.93l-0.9-1.26c-1.63-2.3-3.3-4.58-5-6.85-0.25-0.33-0.49-0.66-0.73-0.99-1.3-1.71-2.63-3.42-3.98-5.12-1.53-1.94-3.1-3.86-4.7-5.77v-0.01c-0.67-0.79-1.35-1.59-2.02-2.38-1.18-1.38-2.37-2.75-3.58-4.12-2.18-2.45-4.41-4.88-6.7-7.29 0 0-7.63-5.64-10.61-10.99l-0.03-0.06c-0.05-0.09-0.1-0.18-0.14-0.27-4.43-8.49 3.55-15.92 73.46 1.64-0.06-0.04-32.58-23.01-74.7-41.22-0.01-0.01-0.02-0.01-0.03-0.01-2.67-1.16-5.38-2.3-8.12-3.4-23.14-7.81-48.44-10.59-72.55-4.79-6.03 1.45-11.98 3.4-17.81 5.91s-11.52 5.58-16.93 9.33c-5.25 3.83-10.11 8.4-14.68 13.68-4.63 5.22-9.1 11.04-13.31 17.51-2.37 5.99-4.61 12.5-6.5 19.38-1.92 6.95-3.51 14.43-4.65 22.29 0 0-0.2 6.54 0.48 18.11 0.5 5.9 1.5 13.08 3.42 21.25 2.38 8.09 5.62 16.94 9.61 26.29 2.86 4.39 6 9.02 9.5 13.93 3.5 5.04 7.44 10.53 11.95 16.56 4.82 6.17 10.41 12.57 16.6 18.94 6.56 6.04 13.51 11.73 20.83 17.1 7.15 4.68 13.99 8.59 20.32 11.87 5.56 2.64 10.68 5.02 15.4 7.2 0.37 0.14 0.72 0.27 1.1 0.39 6.52 2.01 13.69 3.6 21.29 4.5 0.69 0.08 1.38 0.13 2.06 0.17h0.15c0.93 0.02 1.84 0.02 2.76 0.03 0.62 0 1.23-0.01 1.84-0.02 3.65-0.03 7.2-0.24 10.64-0.63l0.9-0.09c0.25-0.04 0.5-0.05 0.75-0.08 2.73-0.48 5.53-1.11 8.53-1.94 3.05-0.78 6.57-1.76 10.79-2.8 0 0-0.38 0.2-1.05 0.65-0.88 0.59-2.27 1.63-4.04 3.27-0.1 0.1-0.2 0.18-0.31 0.28-3.31 3.14-7.02 9.2-10.04 20.61-0.48 2.42-0.92 5.14-1.32 8.05-0.02 0.16-0.04 0.31-0.07 0.47-0.31 2.26-0.59 4.61-0.86 7.11-0.4 3.81-0.75 7.77-1.08 11.89-0.41 7.95-0.78 16.24-1.25 25.06 0 0 0.29 5.11 0.51 13.27 0.09 7.99 0.19 19.02 0.22 30.99 0.02 11.92 0.02 25.12 0.02 38.33v79.2c-1.78 22.52 5.21 45.79 25.09 50.61-5.34 8.84-8.47 19.53-8.47 31.05 0 1.45 0.06 2.88 0.17 4.3 37.47 15.19 179.37 26.84 354.78 28.57 161.71-1.59 294.94-11.61 344.13-25.07 4.17-1.14 7.73-2.31 10.66-3.49 0.1-1.41 0.17-2.84 0.17-4.3 0-11.53-3.13-22.21-8.46-31.05 19.88-4.82 26.87-28.08 25.08-50.61v-79.2c0-13.21 0-26.42 0.02-38.33 0.03-11.98 0.13-23 0.22-30.99 0.22-8.16 0.51-13.27 0.51-13.27-0.47-8.82-0.84-17.11-1.25-25.06-0.33-4.12-0.69-8.08-1.08-11.89-0.16-1.45-0.32-2.84-0.49-4.2-0.12-0.98-0.24-1.96-0.37-2.9-0.42-3.09-0.88-5.96-1.39-8.51-3.02-11.41-6.74-17.47-10.05-20.61-3.26-3.09-5.35-4.18-5.39-4.2h-0.01c4.21 1.04 7.74 2.02 10.79 2.8 3 0.83 5.79 1.45 8.52 1.94 0.25 0.04 0.5 0.05 0.75 0.08 4.28 0.52 8.75 0.76 13.38 0.74 0.93 0 1.85 0 2.8-0.03h0.1c0.68-0.05 1.36-0.09 2.06-0.17 7.61-0.91 14.77-2.49 21.3-4.5 0.37-0.12 0.73-0.25 1.1-0.39 4.72-2.18 9.83-4.56 15.4-7.2 6.33-3.28 13.17-7.19 20.32-11.87 7.31-5.37 14.25-11.05 20.82-17.1 6.19-6.38 11.78-12.77 16.6-18.94 4.51-6.02 8.45-11.52 11.95-16.56 3.5-4.91 6.65-9.54 9.51-13.93 3.98-9.35 7.22-18.2 9.6-26.29 1.92-8.17 2.93-15.35 3.43-21.25 0.56-11.61 0.36-18.16 0.36-18.16z"/>
  <path class="st14" d="m1193.9 1224.5c0.05 0.09 0.1 0.18 0.14 0.27l0.03 0.06c2.98 5.35 10.61 10.99 10.61 10.99 2.29 2.41 4.52 4.84 6.7 7.29 1.21 1.37 2.4 2.74 3.58 4.12 0.68 0.79 1.35 1.58 2.02 2.38l0.01 0.01c1.6 1.92 3.17 3.84 4.7 5.77 1.35 1.7 2.68 3.4 3.98 5.12 0.25 0.33 0.49 0.66 0.73 0.99 1.71 2.27 3.37 4.55 5 6.85 0.3 0.42 0.61 0.84 0.9 1.26 1.61 2.3 3.18 4.61 4.72 6.93 1.3 1.96 2.57 3.94 3.82 5.92 2.26 3.58 4.43 7.2 6.53 10.84 0.87 1.52 1.74 3.03 2.59 4.56 4.81 8.68 9.21 17.59 13.26 26.64 2.24 5 4.37 10.05 6.39 15.13 2.42 6.08 4.71 12.2 6.83 18.35 1.01 2.94 1.99 5.87 2.93 8.81 3.78 11.76 7.04 23.51 9.84 35.11 1.98 8.18 3.72 16.29 5.27 24.27 0.1 0.51 0.21 1.03 0.3 1.54 0.54 2.82 1.05 5.64 1.54 8.44 1.47 8.37 2.69 16.57 3.68 24.52 1.02 7.96 1.92 15.73 2.69 23.27 0.76 7.37 1.34 14.46 1.77 21.23l0.03 0.45c0.43 6.91 0.74 13.47 0.94 19.63 0.42 12.32 0.42 23.04 0.27 31.71-0.06 3.24-0.14 6.2-0.22 8.84v0.04c-0.14 4.11-0.3 7.46-0.45 9.95-0.01 0.17-0.02 0.35-0.03 0.51 10.74-11.86 24.18-22.98 39.96-33.07-0.86 13.61 2.56 28.75 10.01 44.15 2.65 5.26 6.33 10.28 11.07 15.01 1.65 1.64 3.42 3.25 5.33 4.82 6.7 5.52 15.02 10.62 25.26 15.16 14.52 3.68 32.61 6.58 54.11 8.83 22.16 2.31 47.15 3.87 74.12 4.27 11.65 0.17 23.11 0.18 34.41 0.13 11.3 0.05 22.75 0.04 34.4-0.14 26.96-0.4 51.94-1.96 74.1-4.26 21.49-2.24 39.58-5.15 54.11-8.83 10.24-4.55 18.56-9.65 25.26-15.17 7.4-6.1 12.82-12.74 16.4-19.83 6.05-12.52 9.44-24.85 10.04-36.34 0.02-0.3 0.02-0.59 0.03-0.89 0.02-0.58 0.05-1.17 0.06-1.75 0.02-1.75-0.02-3.47-0.13-5.17l-0.01-0.01c-1.09-0.67-2.18-1.32-3.29-1.97-7.22-4.22-14.93-8.04-23.03-11.42 9.34 3.9 18.17 8.38 26.33 13.4 15.79 10.09 29.23 21.2 39.96 33.06-0.24-4.08-0.55-10.68-0.71-19.34-0.15-8.67-0.14-19.4 0.27-31.71 0.2-6.16 0.51-12.73 0.95-19.63 0.43-6.9 1.02-14.15 1.8-21.68 0.78-7.54 1.68-15.31 2.69-23.27 0.99-7.95 2.21-16.14 3.68-24.52 0.49-2.8 1.01-5.62 1.54-8.44 1.63-8.48 3.47-17.1 5.57-25.81 2.8-11.6 6.06-23.35 9.84-35.11 0.95-2.93 1.92-5.87 2.94-8.81 7.09-20.54 15.82-40.88 26.47-60.11 1.58-2.85 3.23-5.68 4.9-8.49 0.6-1.01 1.2-2.02 1.81-3.02 2.63-4.31 5.36-8.58 8.22-12.8 1.8-2.64 3.64-5.27 5.53-7.87 2.51-3.47 5.12-6.9 7.82-10.29 1.54-1.94 3.1-3.86 4.7-5.78 1.83-2.18 3.7-4.35 5.6-6.5 2.17-2.45 4.41-4.88 6.69-7.29 0 0 15.12-11.18 11.1-16.98-3.45-4.96-20.9-5.97-73.78 7.31l0.01-0.01h-0.01c-3.21 3.72-5.92 7.4-8.05 11.02 0 0-0.35 0.46-1 1.32-1.59 2.11-5.05 6.72-10.06 13.47-0.49 0.66-0.99 1.34-1.51 2.04-7.72 10.88-19.04 27.75-32.1 50.27-5.36 11.7-10.74 24.28-16.05 37.16-5.32 12.91-10.22 25.87-14.41 38.45-7.64 23.56-13.32 46.66-16.47 68.68-0.28 2.18-0.52 4.35-0.77 6.52-3.98 7.8-8.68 15.66-14.25 23.6-2.13 3.04-4.38 6.09-6.79 9.16-8.14 10.45-19.5 20.63-34.46 29.14-10.55-1.6-21.52-2.73-32.88-3.43-31.4-1.91-65.74-2.61-102.05-3.14l-0.53-0.01c-36.58 0.65-71.28 1.41-103.06 3.33-10 0.59-19.7 1.53-29.07 2.81-16.66-8.99-29.09-20.1-37.77-31.64-11.38-16.2-18.89-32.38-24.39-48.46-0.32-1.06-0.63-2.11-0.96-3.15 1 5.17 1.88 10.32 2.6 15.39 2.79 21.71 3.57 42.88 4.22 63.03v18.16-18.15c-0.65-20.14-1.43-41.32-4.22-63.03-0.73-5.07-1.61-10.21-2.6-15.39-3.31-17.32-8.05-35.18-13.97-53.35-4.21-12.59-9.11-25.58-14.43-38.51-5.32-12.9-10.69-25.47-16.06-37.17-13.05-22.52-24.38-39.39-32.1-50.27-6.43-8.69-10.63-14.28-12.04-16.14-0.33-0.45-0.52-0.69-0.52-0.69-2.13-3.62-4.83-7.31-8.05-11.02-69.88-17.56-77.86-10.12-73.43-1.63zm553.52 282.34c0.53-15.07 1.22-30.67 2.8-46.62-1.58 15.95-2.28 31.56-2.8 46.62zm-5.25 21.49c-11.31-3.97-23.41-7.11-36.18-9.51 12.77 2.4 24.87 5.54 36.18 9.51z"/>
  <path class="st14" d="m1284.9 1682.2c-0.97-2.04-1.9-4.1-2.71-6.17-4.04-10.19-6.2-20.71-6.28-31.48 0-0.21-0.03-0.4-0.03-0.61 0-12.61 2.88-24.87 8.28-36.66-0.47 0.77-0.94 1.56-1.4 2.36-0.48 0.82-0.94 1.66-1.4 2.51-1.16 2.13-2.26 4.35-3.29 6.66-1.89 4.38-3.64 9.44-5.22 15.83-1.56 6.43-2.64 14.71-2.42 24.71 0.53 8.1 1.9 15.6 3.73 21.32 1.46 4.6 3.16 8.17 4.82 10.83-0.62 0.57-1.32 1.15-2.08 1.73-8.12 6.21-24.43 12.66-57.15 12.3h0.15l81.47 1.94c-6.81-8.1-12.32-16.56-16.47-25.27z"/>
  <path class="st16" d="m1816.9 1707.9c0.1-0.13 0.2-0.25 0.31-0.38 6.81-8.12 12.31-16.58 16.47-25.29 0.97-2.04 1.9-4.1 2.71-6.17 4.04-10.19 6.2-20.71 6.28-31.48 0-0.21 0.03-0.4 0.03-0.61 0-12.62-2.88-24.89-8.29-36.69-4.92-10.76-11.94-21.13-20.86-30.97-10.74-11.86-24.17-22.98-39.97-33.07 0.11 1.7 0.15 3.43 0.13 5.17-0.01 0.58-0.03 1.16-0.06 1.75-0.01 0.3-0.01 0.59-0.03 0.89-0.59 11.49-3.98 23.83-10.04 36.34-3.58 7.09-9 13.73-16.4 19.83-6.7 5.52-15.02 10.62-25.26 15.17-14.52 3.69-32.61 6.59-54.11 8.84-22.16 2.3-47.13 3.86-74.1 4.26-11.64 0.17-23.1 0.19-34.4 0.14-11.3 0.05-22.75 0.04-34.41-0.13-26.97-0.4-51.96-1.96-74.12-4.27-21.5-2.24-39.59-5.15-54.11-8.83-10.24-4.55-18.56-9.65-25.26-15.16-1.91-1.57-3.68-3.18-5.33-4.82-4.74-4.73-8.42-9.74-11.07-15.01-7.44-15.4-10.87-30.54-10.01-44.15-15.79 10.09-29.22 21.2-39.96 33.07-8.91 9.84-15.93 20.21-20.86 30.97 0 0.01-0.01 0.01-0.01 0.02v0.01c-5.4 11.78-8.28 24.05-8.28 36.66 0 0.21 0.03 0.41 0.03 0.61 0.08 10.77 2.25 21.29 6.28 31.48 0.82 2.07 1.74 4.13 2.71 6.17 4.15 8.71 9.66 17.17 16.46 25.29 0.11 0.13 0.21 0.26 0.32 0.38h515.21z"/>
  <path class="st14" d="m1559.3 1769.3c-175.4-1.73-317.3-13.37-354.78-28.57 1.94 28.19 22.84 48.43 48.35 48.43h612.87c25.51 0 46.41-20.23 48.35-48.43-2.93 1.19-6.49 2.35-10.66 3.49-49.19 13.47-182.42 23.49-344.13 25.08z"/>
  <polygon class="st17" points="1809 1789.1 1809 1789.2 1880.7 1977.6 1906.2 1977.6 1857.5 1789.2 1857.5 1789.1"/>
  <polygon class="st17" points="1676.8 1789.1 1676.8 1789.2 1727 1920.9 1752.5 1920.9 1718.4 1789.2 1718.4 1789.1"/>
  <polygon class="st17" points="1387.3 1789.1 1387.3 1789.2 1353.3 1920.9 1378.7 1920.9 1428.9 1789.2 1428.9 1789.1"/>
  <polygon class="st17" points="1261.1 1789.1 1261.1 1789.2 1212.4 1977.6 1237.9 1977.6 1309.6 1789.2 1309.6 1789.1"/>
  <path class="st14" d="m1564.5 1177.2c1.92-11.47 2.87-32.39-8.32-56.02v56.21c-9.02 1.72-16.33 8.22-19.2 16.76-11.11-2.08-32.8-3.6-57.44 8.07h56.1c0 12.4 8.93 22.69 20.7 24.86-0.68 11.91 0.74 28.48 9.35 46.68v-46.7c11.69-2.23 20.54-12.49 20.54-24.83 0-0.41-0.05-0.81-0.06-1.21 11.45 1.95 32.43 2.94 56.16-8.3h-57.96c-3.33-8.2-10.84-14.23-19.87-15.52z"/>
  <rect class="st18" x="1239.8" y="208.53" width="311.62" height="368.61"/>
  <path class="st11" d="m1557.8 582.89h-324.31v-380.11h324.31v380.11zm-311.63-11.5h298.95v-357.1h-298.95v357.1z"/>
  <path class="st11" d="m1563.2 588.3h-335.13v-390.93h335.13v390.93zm-324.31-10.82h313.48v-369.28h-313.48v369.28zm311.64-0.68h-309.78v-367.92h309.78v367.92zm-298.96-10.82h288.13v-346.27h-288.13v346.27z"/>
  <rect class="st11" x="1284.2" y="248.87" width="222.81" height="287.95"/>
  <path class="st19" d="m1391.8 364.14c-1.49 17.49 8.62 37.73 3.57 52.88-10.11 25.28-45.51 15.17-55.62 0-10.12-25.27-25.28-50.56-20.23-80.9 5.05-15.17 20.23-30.35 30.34-25.28 15.17 0 45.51-10.11 40.81 35.9 0.44 5.21 0.83 11.01 1.13 17.4z"/>
  <path class="st20" d="m1461 451.5c-16.69 23.13-31.85 43.36-61.29 47.04-5.24 1.36-10.84 2.19-16.86 2.36-4.24 0.33-8.48 0.25-12.7-0.31-4.76-0.58-9.55-1.64-14.28-3.22-4.13-1.25-7.93-2.99-11.23-5.19-4.95-3.33-8.79-7.7-10.91-13.15-2.12-5.47-2.54-11.97-0.5-19.49 20.09-20.3 30.2-50.63 55.48-65.81 5.06-2.53 10.25-3.93 15.43-4.39 5.17-0.44 10.31 0.09 15.27 1.41 14.82 8.03 35.03 23.2 42.21 45.54 0.47 5.05 0.31 10.14-0.62 15.21z"/>
  <path class="st21" d="m1468.4 314.15c1.57 8 5.15 20.96 4.05 31.23-0.51 5.37-1.66 10.62-3.52 15.43-3.73 9.64-10.33 17.59-20.62 21.48-5.14 1.95-11.21 2.88-18.29 2.51-4.33-1.36-8.79-2.92-13.23-4.73s-8.87-3.87-13.18-6.28c-18.5-10.11-39.78-26.58-38.67-47.83 5.83-29.51 47.12-36.72 73.22-27.6 5.91 1.03 11.6 2.51 16.77 4.38 5.34 2.88 9.91 6.71 13.47 11.41z"/>
  <path class="st20" d="m1450.1 473.24c-4.62 4.96-13.99 12.46-13.05 19.59 10.47 1.99 22.83-7.72 22.47-18.59-0.36-11.09-8.55-3.98-12.24 2.76"/>
  <path class="st21" d="m1402.2 275.48c-8.38 0-17.11-0.7-25.24 1.05 2.28 9.63 24.72 17.85 34.67 13.08 9.93-4.74-1.77-12.92-8.51-14.13"/>
  <path class="st19" d="m1313.9 360.37c-1.14 8.17-4.27 14.87-3.61 23.34 14.69 1.46 17.79-20.62 5.49-25.22"/>
  <rect class="st22" x="833.91" y="410.88" width="322.46" height="425.63"/>
  <path class="st11" d="M815.87,392.84v461.7h358.53v-461.7H815.87z M833.91,836.51V410.88h322.46v425.63H833.91z"/>
  <rect class="st11" x="873.41" y="450.4" width="243.44" height="346.61"/>
  <defs>
   <rect id="b" x="873.41" y="450.4" width="243.44" height="346.61"/>
  </defs>
  <clipPath id="a">
   <use xlink:href="#b"/>
  </clipPath>
  <g class="st23">
   <path class="st24" d="m851.44 635.79c2.06-0.36 4.14-0.68 6.22-0.98-3.77 6.31-4.96 13.86-3.04 20.87-1.87 2.44-3.32 5.24-4.31 8.12-4.29 12.53 5.44 22.63 15.96 26.83 5.97 2.38 14.5 1.23 20.55 0.05 0.46-0.1 0.91-0.23 1.34-0.4 1.6-0.67 3.2-1.35 4.79-2.03-3.81 1.59-4.64 1.93-2.48 1.03 3.65-1.53 7.21-2.94 10.55-5.06 0.08-0.06 0.16-0.13 0.25-0.19 8.38-2.37 14.7-10.34 14.7-19.28 0-1.76-0.3-3.43-0.73-5.05-0.08-1.56-0.3-3.14-0.73-4.75-0.86-3.15-2.24-6.01-3.98-8.58-0.55-4.09-2.33-7.94-5.64-10.68-2.23-1.84-4.28-3.77-6.41-5.63 28.16-3.94 53.44-12.27 66.58-44.71 6.69-16.53-5.22-32.37-18.21-42.04 5.98-3.22 11.86-7.21 16.58-11.87 12.46 0.02 23.82 0.3 26.11 0.33 18.42 0.25 31.23-6.37 37.95-23.71 3.98-10.28-1.93-22.51 0.72-33.3 2.33-9.46 4.93-19.67 2.25-29.4-4.98-18.12-23.66-23.13-40.16-23.65-11.18-0.35-17.49 6.93-19 15.38-22.78-4.55-50.84-1.69-67.28 2.32-20.02 4.88-39.01 20.66-46.03 40.13-7.28 20.17 5.89 42.66 15.85 59.89 5.34 9.23 13.88 15.39 22.26 21.58 5.56 4.11 12.05 7.02 18.28 9.93 6.88 3.21 13.91 3.01 7.11 10.14-17.69 18.56-57.4 11.92-80.7 16-25.47 4.48-14.65 43.15 10.65 38.71z"/>
   <path class="st24" d="m1012.5 549.53c-18.79 3.77-19.66 35.67 0 38.7 15.85 2.45 33.86 1.37 46.28-10.36 2.72-2.58 5.05-5.14 7.06-7.93 0.32 1.19 0.62 2.39 1.02 3.53 3.02 8.83 8.75 16.3 14.52 23.46 20.23 25.09 44.22-1.01 43.48-24.34-0.45-14.16 8.05-27.25 8.92-41.62 0.41-6.76-2.35-12.6-6.08-18.14 4.46-4.57 7.46-10.56 8.2-18.09 0.98-10 1.09-22.96-3.27-33.16 14.08-7.64 10.34-35.82-10.74-38.38-18.6-2.26-33.56-2.12-46.48 12.95-13.4 15.63-30.04 38.2-23.99 60.21 0.83 3.02 2.14 5.8 3.8 8.36-3.03 2.14-5.74 4.83-7.89 7.94-1.28 1.85-2.41 4.45-3.52 7.41-2.9 1.54-5.53 3.97-7.63 7.46-6.89 11.43-8.86 19.02-23.68 22z"/>
   <path class="st24" d="m939.69 637.19c-13.2 16.06-6.35 32.28 11.64 39.73 3.54 1.47 6.99 1.94 10.3 1.72 2.99 1.89 6.44 2.91 10.09 2.46 37.03-4.53 67.52-49.11 47.8-83.71-6.81-11.95-19.81-11.82-28.56-5.71-12.15 1.28-23.69 5.14-33.36 13.13-8.48 7.01-13.36 17.58-12.69 28.03-1.98 1.16-3.76 2.58-5.22 4.35z"/>
   <path class="st24" d="m939.4 764.34c-2.55-2.27-5.32-4.3-8.25-6.12 1.03-2.21 2-4.42 2.98-6.48 4.49-9.52 7.86-18.25 7.86-28.92 0-23.36-25.69-27.26-43.36-25.44-1.9 0.19-3.77 0.44-5.63 0.72-4.09-0.33-8.24 0.64-11.85 2.64-10.74 3.37-19.75 9.49-25.31 21.08-3.54 7.38-5.07 15.14-4.78 22.74-4.59 1.23-9.27 2.71-14.15 4.42-8.09 2.83-4.61 15.76 3.55 12.9 4.54-1.59 8.88-2.97 13.15-4.09 0.73 2.03 1.61 4.01 2.65 5.94 1.82 8.81 6.55 17.21 12.09 23.73 1.37 1.61 2.92 2.85 4.59 3.85 9.04 9.23 25.72 7.03 37.09 7.98 3.95 0.33 9.68 1.42 15.67 2 2.39 1.46 4.26 3.28 5.11 5.57 8.91 24.05 47.72 13.65 38.7-10.67-5.85-15.8-16.73-25.65-30.11-31.85z"/>
   <path class="st24" d="m1120.5 774.72c-15.18-3.06-30.64-2.24-46.08-1.67-0.63-0.25-1.3-0.47-1.9-0.76-10.38-5.16-19.15-14.18-29.45-20.13 0-10.79 0.17-21.59-0.04-32.37-0.39-18.61-8.3-40.44-30.3-40.44-24.76 0-40.13 25.99-44.21 47.15-2.1 10.86-1.77 21.67 2.74 31.87 4.82 10.88 16.95 21.9 6.35 32.67-18.17 18.45 10.2 46.84 28.37 28.37 3.65-3.7 6.76-7.74 9.32-11.99 15.49 8.6 34.65 7.5 53.62 5.99 16.91 3.54 34.59 2.84 51.58 0.02 19.57-3.26 18.89-34.9 0-38.71z"/>
   <path class="st24" d="m1124.8 726.44c-12.9 0.49-19.25-12.58-25.78-22.02-4.86-7.01-11.49-28.16-10.15-42.62 16.99 2.17 33.29-19.39 17.42-33.53-15.04-13.43-29.72-16.58-45.47-2.79-15.2 13.31-11.27 45.46-9.27 62.75 4.09 35.3 34.18 79.83 73.25 78.34 25.8-0.98 25.89-41.12 0-40.13z"/>
  </g>
 </g>
</svg>
