<?xml version="1.0" encoding="UTF-8"?>
<svg viewBox="0 0 1057.307 778.22192" xmlns="http://www.w3.org/2000/svg">
 <defs>
  <filter id="a" x="-1.0755" y="-1.0755" width="3.1509" height="3.1509">
   <feGaussianBlur stdDeviation="19.68186"/>
  </filter>
 </defs>
 <g transform="translate(-209.7 -124.82)">
  <g transform="matrix(-.45572 0 0 .45572 1034 88.455)">
   <path d="m420.85 559.53c-122.52-168.88-263.11-21.818-269.85 184.47 30.426 22.479 61.762 30.002 82.034-14.203 47.661 37.78 224.08 28.374 281.35-4.0891 10.558 14.623 20.058 62.774 85.186 15.435-5.0635-203.43-124.45-386.98-178.72-181.62z" fill="#ff6b31" stroke="#000" stroke-linecap="round" stroke-linejoin="round" stroke-width="9"/>
   <path transform="matrix(2.4218 0 0 2.2948 -429.68 -803.54)" d="m317.99 607c0 12.129-9.8322 21.961-21.961 21.961s-21.961-9.8322-21.961-21.961 9.8322-21.961 21.961-21.961 21.961 9.8322 21.961 21.961z" fill="#fff" filter="url(#a)"/>
   <path transform="matrix(.99993 0 0 1.052 -59.97 9.0539)" d="m625.71 286.65c0 102.57-83.147 185.71-185.71 185.71s-185.71-83.147-185.71-185.71 83.147-185.71 185.71-185.71 185.71 83.147 185.71 185.71z" fill="#ffc6b1" fill-rule="evenodd" stroke="#000" stroke-width="8.7752"/>
   <path d="m178.89 316.93c196.29 19.534 35.994-64.722 139.14-139.14 78.948 23.875 131.94-36.662 216.16 24.846l37.269-52.176c-243.39-155.96-401.29-10.082-392.56 166.47z" stroke="#000" stroke-width="9"/>
  </g>
  <g transform="matrix(-2.2233 0 0 2.4573 2257.8 -669.95)" fill-rule="evenodd" stroke="#383838">
   <path d="m509.03 412.37c-27.838 0.79014-49.674 46.376-39.376 61.835s70.722 15.459 80.566 0-12.446-62.651-41.19-61.835z" fill="#ff8080" stroke-width="3.2216"/>
   <path d="m488.31 421.68h46.403s0.74046 46.103-15.797 46.103c-15.55 0-30.606-46.103-30.606-46.103z" fill="#fff" stroke-width="3.4787"/>
   <path transform="matrix(.74318 0 0 .82978 176.87 136.32)" d="m496.96 320.73c0 25.731-20.859 46.59-46.59 46.59s-46.59-20.859-46.59-46.59 20.859-46.59 46.59-46.59c25.584 0 46.382 20.63 46.589 46.213" fill="#fca" stroke-width="5"/>
   <path d="m498.61 391.45s16.104 17.022 32.633 15.694c16.554-1.3301 27.705-9.0433 27.705-9.0433s-8.5375-46.539-46.679-47.309c-29.86-0.62546-44.563 28.039-48.921 47.309-4.4142 19.518 1.6412 19.444 8.0934 17.781s27.169-24.432 27.169-24.432z" fill="#d38d5f" stroke-width="4.0785"/>
   <path d="m565.06 449.39c4.2213 5.6753 2.2088 14.329-4.4914 19.312s-15.567 4.4219-19.788-1.2534l-0.063-0.0846c-2.4644-3.3803-2.9066-17.882 1.4793-20.907 4.8284-3.3303 18.642-2.7425 22.863 2.9328z" fill="#fca" stroke-width="3"/>
  </g>
  <g transform="matrix(2.087 0 0 2.087 9.015 -350.4)" fill-rule="evenodd" stroke="#383838">
   <path d="m229.97 289.15c-29.168 0.82788-52.047 48.591-41.257 64.788s74.1 16.197 84.414 0-13.041-65.643-43.157-64.788z" fill="#fff" stroke-width="3.3755"/>
   <path d="m232.15 318.46 6.8946 7.1627-3.8949 23.092 16.969 9.7652 6.3496-15.475-12.062-18.56 2.552-9.6971-16.809 3.7128z" fill="#00f" stroke-width="3.0796"/>
   <path transform="matrix(-.77868,0,0,.86941,583.33,-.08126)" d="m496.96 320.73c0 25.731-20.859 46.59-46.59 46.59s-46.59-20.859-46.59-46.59 20.859-46.59 46.59-46.59c25.584 0 46.382 20.63 46.589 46.213" fill="#fca" stroke-width="5"/>
   <path d="m211.51 261.38s13.915 12.293 29.502 11.334c15.612-0.9606 31.223-6.531 31.223-6.531s0.8635-35.56-40.202-36.117c-28.163-0.38984-39.483 12.515-44.864 36.117-5.4366 23.848 9.5891 37.844 9.5891 37.844s7.9896-7.78 11.677-18.442 3.0738-24.206 3.0738-24.206z" fill="#918a6f" stroke-width="3.3659"/>
   <path d="m273.57 325.48c8.9097-1.9455 14.915 1.4137 14.915 8.4867s-0.69051 12.717-13.861 12.483c-12.245-0.21763-12.124-7.8462-12.124-14.919v-0.10547c0.04-4.1831 0.47242-20.52 7.2089-20.353 7.2076 0.17798 6.2122 5.6605 3.861 14.408z" fill="#fca" stroke-width="3"/>
  </g>
  <path transform="matrix(.99944,-.03334,.03334,.99944,0,0)" d="m377.49 438.14h15.706a6.4605 6.4605 0 0 1 6.4605 6.4605v205.56a6.4605 6.4605 0 0 1 -6.4605 6.4605h-15.706a6.4605 6.4605 0 0 1 -6.4605 -6.4605v-205.56a6.4605 6.4605 0 0 1 6.4605 -6.4605" fill="#666" stroke="#999" stroke-linecap="round" stroke-linejoin="round" stroke-width="3.1386"/>
  <path transform="rotate(1.2615)" d="m864.1 616.45h19.082a7.8492 7.8492 0 0 1 7.8492 7.8492v249.75a7.8492 7.8492 0 0 1 -7.8492 7.8492h-19.082a7.8492 7.8492 0 0 1 -7.8492 -7.8492v-249.75a7.8492 7.8492 0 0 1 7.8492 -7.8492" fill="#808080" stroke="#999" stroke-linecap="round" stroke-linejoin="round" stroke-width="3.8133"/>
  <path transform="rotate(4.3631)" d="m1156.9 461.37h16.655a6.8507 6.8507 0 0 1 6.8507 6.8507v217.98a6.8507 6.8507 0 0 1 -6.8507 6.8507h-16.655a6.8507 6.8507 0 0 1 -6.8507 -6.8507v-217.98a6.8507 6.8507 0 0 1 6.8507 -6.8507" fill="#666" stroke="#999" stroke-linecap="round" stroke-linejoin="round" stroke-width="3.3282"/>
  <g transform="translate(-200 297.14)" stroke="#806600" stroke-linecap="round" stroke-linejoin="round" stroke-width="3.5433">
   <path d="m547.36 152.29 527.38 255.64 312.79-160.64-510.37-197.15z" fill="#ac9393"/>
   <path d="m547.36 152.29v-16.242l329.8-100.09v14.168z" fill="#353564" fill-rule="evenodd" stroke="none"/>
   <path d="m877.16 50.129 510.37 197.15v-16.885l-510.37-194.44z" fill="#e9e9ff" fill-rule="evenodd" stroke="none"/>
   <path d="m547.36 136.05 527.38 251.96 312.79-157.61-510.37-194.44z" fill="#965c36" fill-rule="evenodd" stroke="#ac9393"/>
   <path d="m1074.7 407.93v-19.915l312.79-157.61v16.885z" fill="#5a3f2a"/>
   <path d="m547.36 152.29 527.38 255.64v-19.915l-527.38-251.96z" fill="#5a3f2a"/>
  </g>
  <g transform="matrix(2.9478 0 0 2.9478 -1958.2 647.06)" fill-rule="evenodd" stroke="#001a37">
   <path transform="matrix(.77868 0 0 .86941 433.18 -328.95)" d="m411.93 294.4c14.54-21.229 43.536-26.652 64.766-12.113s26.652 43.536 12.113 64.766-43.536 26.652-64.766 12.113c-17.864-12.235-24.945-35.165-17.089-55.342" fill="#fca" stroke-width="5"/>
   <path d="m822.32 0.75677c3.1555-0.57585 5.8382-21.682 19.471-17.945 13.913 3.8141 8.8541 16.814 6.1772 24.148-2.5028 6.8568-8.3772 18.084-21.441 13.717-11.344-3.7917-17.888-24.541-12.729-25.792 5.4424-1.3206 5.3662 6.4476 8.5218 5.8717z" fill="#fca" stroke-width="3"/>
   <path d="m781.21-39.712c-29.168 0.82787-52.047 48.591-41.257 64.788s74.1 16.197 84.414 0-13.041-65.643-43.157-64.788z" fill="#fff" stroke-width="3.3755"/>
   <path d="m792.72-10.381c6.9666 0.50807 21.711-26.026 16.584-31.026s15.656-25.583 15.656-25.583-7.1187-28.444-29.786-30.972c-22.634-2.5241-48.848 3.9289-56.153 29.636-7.3906 26.008 12.212 43.514 12.212 43.514 10.05 10.409 10.724 10.231 17.687 11.663 0 0 8.7995 1.6752 23.8 2.7692z" fill="#918a6f" stroke-width="3.8731"/>
  </g>
  <g transform="matrix(.62036 0 0 .62036 438.92 426.15)">
   <path d="m415.14 496.67c-131.09-48.875-257.4 41.039-264.13 247.33 30.426 22.479 61.762 30.002 82.034-14.203 47.661 37.78 224.08 28.374 281.35-4.0891 10.558 14.623 20.058 62.774 85.186 15.435-5.0635-203.43-53.019-364.13-184.44-244.47z" fill="#ffd24a" stroke="#000" stroke-linecap="round" stroke-linejoin="round" stroke-width="9"/>
   <path transform="matrix(2.4218 0 0 2.2948 -429.68 -803.54)" d="m317.99 607c0 12.129-9.8322 21.961-21.961 21.961s-21.961-9.8322-21.961-21.961 9.8322-21.961 21.961-21.961 21.961 9.8322 21.961 21.961z" fill="#fff" filter="url(#a)"/>
   <path transform="matrix(.99993 0 0 1.052 -59.97 9.0539)" d="m625.71 286.65c0 102.57-83.147 185.71-185.71 185.71s-185.71-83.147-185.71-185.71 83.147-185.71 185.71-185.71 185.71 83.147 185.71 185.71z" fill="#ffc6b1" fill-rule="evenodd" stroke="#000" stroke-width="8.7752"/>
   <path d="m163.98 453.58c65.427 7.4716 99.426 66.025 164.85 34.409 75.144 45.102 149.24-25.189 132.55 8.4456l170.32-93.417c-32.704-458.83-538.57-337.18-467.72 50.563z" fill="#845000" stroke="#000" stroke-width="9"/>
  </g>
  <g transform="translate(-45.714 -2.8571)" fill-rule="evenodd" stroke="#001a37">
   <path d="m1043.8 745.74c-9.7721-1.6978-18.08-63.925-60.299-52.906-43.085 11.245-27.419 49.573-19.13 71.196 7.7506 20.216 25.943 53.315 66.399 40.442 35.13-11.179 55.397-72.352 39.42-76.043-16.854-3.8936-16.618 19.009-26.39 17.311z" fill="#fca" stroke-width="9.0649"/>
   <path d="m1171.1 626.43c90.327 2.4408 161.18 143.26 127.77 191.01s-229.47 47.753-261.42 0 40.384-193.53 133.65-191.01z" fill="#fff" stroke-width="10.199"/>
   <path d="m1128.6 677.1-21.351 21.118-39.367 46.652-24.693 39.505 6.7651-53.482c14.894-16.905 22.045-17.909 34.496-36.149l-7.9032-28.59z" fill="#ff8080" stroke-width="9.3055"/>
   <path transform="matrix(-2.4114 0 0 2.5633 2248.9 -226.32)" d="m411.93 294.4c14.54-21.229 43.536-26.652 64.766-12.113s26.652 43.536 12.113 64.766-43.536 26.652-64.766 12.113c-17.864-12.235-24.945-35.165-17.089-55.342" fill="#fca" stroke-width="5"/>
   <path d="m1155.6 569.43s11.588 6.7255-34.447 6.7255c-43.296 0-85.536-30.149-85.536-30.149s22.045-83.862 92.242-91.315c70.092-7.4418 151.27 11.583 173.9 87.374 22.887 76.678-37.819 128.29-37.819 128.29l-85.424 9.3363-11.699-53.67z" fill="#918a6f" stroke-width="11.703"/>
   <path d="m1142.5 604.63c8.8014-23.733 38.372-15.642 40.027 10.633 1.8859 29.939-37.42 35.01-37.42 35.01" fill="#fca" stroke-width="11.703"/>
  </g>
 </g>
</svg>
